<svg width="24" height="24" viewBox="0 0 24 24" fill="none" xmlns="http://www.w3.org/2000/svg">
<path d="M17.4843 21.5993H6.51632C6.28543 21.5938 6.05789 21.5429 5.84668 21.4495C5.63547 21.3561 5.44473 21.222 5.28538 21.0548C5.12602 20.8876 5.00116 20.6907 4.91793 20.4753C4.8347 20.2599 4.79474 20.0301 4.80032 19.7993V7.93726H6.00032V19.7993C5.99459 19.8726 6.00341 19.9463 6.02628 20.0162C6.04914 20.0861 6.0856 20.1508 6.13356 20.2066C6.18151 20.2623 6.24001 20.308 6.3057 20.3411C6.37139 20.3742 6.44297 20.3939 6.51632 20.3993H17.4843C17.5577 20.3939 17.6292 20.3742 17.6949 20.3411C17.7606 20.308 17.8191 20.2623 17.8671 20.2066C17.915 20.1508 17.9515 20.0861 17.9744 20.0162C17.9972 19.9463 18.006 19.8726 18.0003 19.7993V7.93726H19.2003V19.7993C19.2059 20.0301 19.1659 20.2599 19.0827 20.4753C18.9995 20.6907 18.8746 20.8876 18.7153 21.0548C18.5559 21.222 18.3652 21.3561 18.154 21.4495C17.9428 21.5429 17.7152 21.5938 17.4843 21.5993Z" fill="#AFB4BD"/>
<path d="M19.6686 6.59844H4.20059C4.04146 6.59844 3.88884 6.53522 3.77632 6.4227C3.6638 6.31018 3.60059 6.15757 3.60059 5.99844C3.60059 5.83931 3.6638 5.6867 3.77632 5.57417C3.88884 5.46165 4.04146 5.39844 4.20059 5.39844H19.6686C19.8277 5.39844 19.9803 5.46165 20.0928 5.57417C20.2054 5.6867 20.2686 5.83931 20.2686 5.99844C20.2686 6.15757 20.2054 6.31018 20.0928 6.4227C19.9803 6.53522 19.8277 6.59844 19.6686 6.59844Z" fill="#AFB4BD"/>
<path d="M13.8003 9H15.0003V18H13.8003V9Z" fill="#AFB4BD"/>
<path d="M9 9H10.2V18H9V9Z" fill="#AFB4BD"/>
<path d="M15 4.71444H13.86V3.59844H10.14V4.71444H9V3.59844C8.99962 3.29031 9.11777 2.99383 9.33 2.77044C9.54223 2.54704 9.83225 2.41384 10.14 2.39844H13.86C14.1677 2.41384 14.4578 2.54704 14.67 2.77044C14.8822 2.99383 15.0004 3.29031 15 3.59844V4.71444Z" fill="#AFB4BD"/>
</svg>
