<svg width="49" height="46" viewBox="0 0 49 46" fill="none" xmlns="http://www.w3.org/2000/svg">
<rect x="2.62173" y="1.98501" width="39.975" height="39.975" rx="9.08523" stroke="#64C68D" stroke-width="3.63409"/>
<rect width="26.65" height="20.5" transform="translate(22.0503 25.0488)" fill="#EFFAF4"/>
<path d="M25.6846 34.1338L32.9528 41.4019L45.6721 28.6826" stroke="#64C68D" stroke-width="3.63409" stroke-linecap="round"/>
<path d="M17.4519 30.8946V11.0723H18.7218V30.8946H17.4519ZM20.8202 17.6152C20.7582 16.9906 20.4924 16.5053 20.0226 16.1595C19.5529 15.8136 18.9154 15.6407 18.1101 15.6407C17.5629 15.6407 17.1009 15.7181 16.7241 15.873C16.3472 16.0227 16.0582 16.2317 15.8568 16.5002C15.6607 16.7686 15.5626 17.0732 15.5626 17.4139C15.5523 17.6978 15.6116 17.9456 15.7407 18.1572C15.8749 18.3688 16.0582 18.5521 16.2905 18.707C16.5227 18.8567 16.7912 18.9883 17.0957 19.1019C17.4003 19.2103 17.7255 19.3032 18.0714 19.3806L19.4961 19.7213C20.1878 19.8762 20.8227 20.0826 21.4009 20.3407C21.979 20.5988 22.4798 20.9163 22.9031 21.2931C23.3263 21.67 23.6541 22.1139 23.8864 22.625C24.1239 23.136 24.2452 23.7219 24.2504 24.3826C24.2452 25.3531 23.9974 26.1945 23.507 26.9069C23.0218 27.6141 22.3197 28.1639 21.4009 28.5562C20.4872 28.9433 19.3851 29.1369 18.0946 29.1369C16.8144 29.1369 15.6994 28.9407 14.7496 28.5484C13.8049 28.1561 13.0667 27.5754 12.5351 26.8062C12.0085 26.0319 11.7324 25.0744 11.7065 23.9335H14.9509C14.987 24.4652 15.1393 24.9092 15.4077 25.2654C15.6813 25.6164 16.0453 25.8822 16.4995 26.0629C16.9589 26.2384 17.4777 26.3262 18.0559 26.3262C18.6237 26.3262 19.1167 26.2436 19.5348 26.0784C19.9581 25.9132 20.2859 25.6835 20.5182 25.3892C20.7505 25.095 20.8666 24.7569 20.8666 24.3749C20.8666 24.0187 20.7608 23.7193 20.5492 23.4767C20.3427 23.2341 20.0381 23.0276 19.6355 22.8573C19.238 22.6869 18.7502 22.532 18.172 22.3927L16.4453 21.9591C15.1083 21.6338 14.0527 21.1254 13.2784 20.4337C12.5041 19.7419 12.1195 18.8102 12.1247 17.6384C12.1195 16.6783 12.375 15.8394 12.8912 15.1219C13.4126 14.4044 14.1275 13.8443 15.0361 13.4417C15.9446 13.039 16.977 12.8377 18.1333 12.8377C19.3103 12.8377 20.3375 13.039 21.2151 13.4417C22.0978 13.8443 22.7843 14.4044 23.2747 15.1219C23.7651 15.8394 24.0181 16.6705 24.0335 17.6152H20.8202Z" fill="#64C68D"/>
</svg>
