<svg width="48" height="58" viewBox="0 0 48 58" fill="none" xmlns="http://www.w3.org/2000/svg">
<g filter="url(#filter0_d_175_9565)">
<rect y="6" width="38" height="38" rx="5" fill="white"/>
</g>
<path d="M24.5859 21.5469C25.3363 21.0818 25.9148 20.385 26.2339 19.5618C26.5529 18.7386 26.5951 17.834 26.3541 16.9847C26.113 16.1354 25.6019 15.3877 24.8981 14.8548C24.1942 14.3219 23.3359 14.0328 22.4531 14.0312H15.5469C14.664 14.0328 13.8058 14.3219 13.1019 14.8548C12.398 15.3877 11.8869 16.1354 11.6459 16.9847C11.4049 17.834 11.4471 18.7386 11.7661 19.5618C12.0852 20.385 12.6636 21.0818 13.4141 21.5469C12.8238 21.9094 12.3363 22.4171 11.9981 23.0217C11.66 23.6262 11.4824 24.3073 11.4824 25C11.4824 25.6927 11.66 26.3738 11.9981 26.9783C12.3363 27.5829 12.8238 28.0906 13.4141 28.4531C12.8112 28.825 12.3161 29.348 11.9778 29.9703C11.6394 30.5925 11.4697 31.2924 11.4854 32.0006C11.501 32.7087 11.7016 33.4004 12.0671 34.0071C12.4326 34.6138 12.9503 35.1144 13.569 35.4592C14.1877 35.8041 14.8858 35.9812 15.594 35.973C16.3023 35.9647 16.9961 35.7715 17.6066 35.4124C18.2171 35.0533 18.7231 34.5408 19.0744 33.9258C19.4257 33.3107 19.6101 32.6145 19.6094 31.9062V27.8945C20.0157 28.301 20.5037 28.6167 21.0411 28.8206C21.5785 29.0246 22.153 29.1122 22.7267 29.0776C23.3005 29.043 23.8604 28.8871 24.3694 28.6202C24.8784 28.3532 25.325 27.9813 25.6796 27.529C26.0342 27.0766 26.2888 26.5542 26.4266 25.9962C26.5644 25.4381 26.5822 24.8572 26.4788 24.2918C26.3754 23.7264 26.1532 23.1894 25.8269 22.7162C25.5007 22.243 25.0777 21.8445 24.5859 21.5469ZM25.2969 18.0938C25.2942 18.8471 24.9937 19.5689 24.461 20.1016C23.9283 20.6344 23.2065 20.9348 22.4531 20.9375H19.6094V15.25H22.4531C23.2065 15.2527 23.9283 15.5531 24.461 16.0859C24.9937 16.6186 25.2942 17.3404 25.2969 18.0938ZM12.7031 18.0938C12.7058 17.3404 13.0063 16.6186 13.539 16.0859C14.0717 15.5531 14.7935 15.2527 15.5469 15.25H18.3906V20.9375H15.5469C14.7935 20.9348 14.0717 20.6344 13.539 20.1016C13.0063 19.5689 12.7058 18.8471 12.7031 18.0938ZM12.7031 25C12.7058 24.2466 13.0063 23.5248 13.539 22.9921C14.0717 22.4594 14.7935 22.1589 15.5469 22.1562H18.3906V27.8438H15.5469C14.7935 27.8411 14.0717 27.5406 13.539 27.0079C13.0063 26.4752 12.7058 25.7534 12.7031 25ZM15.5469 34.75C14.7927 34.75 14.0693 34.4504 13.536 33.9171C13.0027 33.3838 12.7031 32.6605 12.7031 31.9062C12.7031 31.152 13.0027 30.4287 13.536 29.8954C14.0693 29.3621 14.7927 29.0625 15.5469 29.0625H18.3906V31.9062C18.3879 32.6596 18.0875 33.3814 17.5547 33.9141C17.022 34.4469 16.3003 34.7473 15.5469 34.75ZM22.4531 27.8438C21.6989 27.8438 20.9756 27.5441 20.4423 27.0108C19.909 26.4775 19.6094 25.7542 19.6094 25C19.6094 24.2458 19.909 23.5225 20.4423 22.9892C20.9756 22.4559 21.6989 22.1562 22.4531 22.1562C23.2073 22.1562 23.9306 22.4559 24.464 22.9892C24.9973 23.5225 25.2969 24.2458 25.2969 25C25.2969 25.7542 24.9973 26.4775 24.464 27.0108C23.9306 27.5441 23.2073 27.8438 22.4531 27.8438Z" fill="#70757E"/>
<defs>
<filter id="filter0_d_175_9565" x="-10" y="0" width="58" height="58" filterUnits="userSpaceOnUse" color-interpolation-filters="sRGB">
<feFlood flood-opacity="0" result="BackgroundImageFix"/>
<feColorMatrix in="SourceAlpha" type="matrix" values="0 0 0 0 0 0 0 0 0 0 0 0 0 0 0 0 0 0 127 0" result="hardAlpha"/>
<feOffset dy="4"/>
<feGaussianBlur stdDeviation="5"/>
<feComposite in2="hardAlpha" operator="out"/>
<feColorMatrix type="matrix" values="0 0 0 0 0.502031 0 0 0 0 0.552205 0 0 0 0 0.6375 0 0 0 0.16 0"/>
<feBlend mode="normal" in2="BackgroundImageFix" result="effect1_dropShadow_175_9565"/>
<feBlend mode="normal" in="SourceGraphic" in2="effect1_dropShadow_175_9565" result="shape"/>
</filter>
</defs>
</svg>
