<svg width="24" height="24" viewBox="0 0 24 24" fill="none" xmlns="http://www.w3.org/2000/svg">
<path d="M12 15.1395C11.6767 15.1395 11.4146 14.8584 11.4146 14.5116V4.99285L9.64929 6.61624C9.40385 6.84195 9.03431 6.81149 8.82389 6.54821C8.61348 6.28493 8.64187 5.88853 8.88731 5.66283L11.6186 3.1512C11.7277 3.05081 11.8628 3.00041 11.9979 3L12 3C12.1522 3 12.2909 3.06233 12.395 3.1645L15.1126 5.66276C15.3581 5.88842 15.3866 6.28482 15.1762 6.54813C14.9658 6.81145 14.5963 6.84197 14.3508 6.61631L12.5854 4.99339V14.5116C12.5854 14.8584 12.3233 15.1395 12 15.1395Z" fill="#AFB4BD"/>
<path d="M7.5392 21C5.5666 21 4 19.2325 4 17.0974V12.764C4 10.6281 5.5665 8.86047 7.5392 8.86047H8.28707C8.61036 8.86047 8.87244 9.14159 8.87244 9.48837C8.87244 9.83516 8.61036 10.1163 8.28707 10.1163H7.5392C6.24946 10.1163 5.17073 11.282 5.17073 12.764V17.0974C5.17073 18.5783 6.24935 19.7442 7.5392 19.7442H16.4608C17.7506 19.7442 18.8293 18.5783 18.8293 17.0974V12.7551C18.8293 11.2782 17.7543 10.1163 16.4696 10.1163H15.7137C15.3904 10.1163 15.1284 9.83516 15.1284 9.48837C15.1284 9.14159 15.3904 8.86047 15.7137 8.86047H16.4696C18.4377 8.86047 20 10.6248 20 12.7551V17.0974C20 19.2325 18.4334 21 16.4608 21H7.5392Z" fill="#AFB4BD"/>
</svg>
