<svg width="18" height="18" viewBox="0 0 18 18" fill="none" xmlns="http://www.w3.org/2000/svg">
<path d="M7.28947 7.03333C7.28947 6.07604 8.0553 5.3 9 5.3C9.9447 5.3 10.7105 6.07604 10.7105 7.03333V7.0888C10.7105 7.47303 10.5884 7.84706 10.3623 8.1555L8.99458 10.0212C8.74177 10.3661 8.60526 10.7843 8.60526 11.2139V11.8333C8.60526 12.0542 8.78199 12.2333 9 12.2333C9.21801 12.2333 9.39474 12.0542 9.39474 11.8333V11.2139C9.39474 10.9561 9.47664 10.7052 9.62833 10.4983L10.9961 8.63256C11.3233 8.18617 11.5 7.64487 11.5 7.0888V7.03333C11.5 5.63421 10.3807 4.5 9 4.5C7.61929 4.5 6.5 5.63421 6.5 7.03333V7.77179C6.5 7.99271 6.67673 8.17179 6.89474 8.17179C7.11274 8.17179 7.28947 7.99271 7.28947 7.77179V7.03333Z" fill="#AFB4BD"/>
<path d="M9 14.5C9.29068 14.5 9.52632 14.2612 9.52632 13.9667C9.52632 13.6721 9.29068 13.4333 9 13.4333C8.70932 13.4333 8.47368 13.6721 8.47368 13.9667C8.47368 14.2612 8.70932 14.5 9 14.5Z" fill="#AFB4BD"/>
<path fill-rule="evenodd" clip-rule="evenodd" d="M8.99749 0.500001C10.2763 0.499265 11.5389 0.787265 12.6909 1.34253C13.8431 1.89781 14.855 2.70605 15.6514 3.70699C16.4477 4.70793 17.008 5.87574 17.2903 7.12339C17.5727 8.37104 17.5698 9.66634 17.2821 10.9127C16.9943 12.1591 16.429 13.3245 15.6282 14.322C14.8275 15.3194 13.8121 16.1232 12.6575 16.6735C11.503 17.2237 10.2392 17.5062 8.96029 17.4999C7.73151 17.4938 6.51927 17.2212 5.40697 16.7017L1.03324 17.4928C0.872923 17.5218 0.709392 17.4624 0.605044 17.3373C0.500696 17.2121 0.471629 17.0406 0.528932 16.8881L1.7979 13.511C1.02498 12.2762 0.581577 10.8623 0.51214 9.40453C0.438987 7.86877 0.783641 6.34191 1.5094 4.98658C2.23516 3.63124 3.31486 2.49818 4.63351 1.70809C5.95212 0.918026 7.4604 0.500503 8.99749 0.500001ZM8.9979 1.40533C7.62458 1.40575 6.27696 1.77878 5.09882 2.48469C3.92067 3.1906 2.95597 4.20295 2.3075 5.41395C1.65903 6.62494 1.35108 7.98922 1.41644 9.36145C1.4818 10.7337 1.91804 12.0625 2.67868 13.2063C2.75925 13.3275 2.77666 13.48 2.72548 13.6162L1.65695 16.4599L5.38966 15.7848C5.48453 15.7676 5.5824 15.7812 5.66901 15.8235C6.69561 16.3254 7.82219 16.5889 8.96478 16.5946C10.1074 16.6002 11.2365 16.3478 12.268 15.8562C13.2995 15.3646 14.2068 14.6464 14.9223 13.7552C15.6377 12.864 16.1428 11.8228 16.3999 10.7091C16.6571 9.59539 16.6596 8.43801 16.4073 7.32321C16.155 6.20842 15.6545 5.16497 14.9429 4.27064C14.2314 3.37632 13.3272 2.65419 12.2979 2.15807C11.2685 1.66196 10.1405 1.40465 8.9979 1.40533Z" fill="#AFB4BD"/>
</svg>
