<svg width="157" height="157" viewBox="0 0 157 157" fill="none" xmlns="http://www.w3.org/2000/svg">
<g clip-path="url(#clip0_848_19330)">
<path d="M127.326 67.0894L133.584 57.1408C135.002 54.8969 136.42 52.6483 137.838 50.4045C139.885 47.1686 143.146 46.1907 146.512 48.0425C149.192 49.5152 151.782 51.1462 154.268 52.927C157.298 55.0953 157.832 58.4871 155.856 61.638C146.597 76.4097 137.299 91.1626 128.087 105.967C127.367 107.151 126.971 108.503 126.939 109.888C126.858 124.688 126.887 139.484 126.887 154.293C126.887 156.868 126.74 157.01 124.207 157.01H2.62331C0.146549 157.01 0 156.868 0 154.416V2.67853C0 0.127606 0.108731 0.0236816 2.73674 0.0236816C34.2477 0.0236816 65.7444 0.0347076 97.2269 0.0567526C98.0747 0.0902118 98.8827 0.425276 99.5052 1.00154C108.347 9.75657 117.147 18.5525 125.903 27.3894C126.502 28.0674 126.837 28.9372 126.849 29.8412C126.901 41.9297 126.882 54.0135 126.882 66.0974C126.882 66.3902 126.934 66.6784 126.962 66.9713L127.326 67.0894ZM96.8913 2.5557H2.59492V154.435H124.334V111.839C120.175 118.453 116.299 124.703 112.329 130.905C111.896 131.583 111.297 132.139 110.589 132.521C105.862 134.883 101.084 137.211 96.3242 139.531C94.1263 140.599 93.4882 140.192 93.5165 137.693C93.5543 132.445 93.5874 127.197 93.6867 121.953C93.6995 121.153 93.9211 120.37 94.3295 119.681C104.076 104.095 113.833 88.5187 123.602 72.9518C124.14 72.0597 124.434 71.0412 124.452 69.9993C124.509 57.325 124.485 44.6507 124.485 31.9764V30.0301H100.148C96.8913 30.0301 96.8913 30.0301 96.8913 26.6903V2.5557ZM103.622 122.544C115.666 103.364 127.769 84.0956 139.932 64.7369L133.995 61.0144L96.9481 119.988L103.622 122.544ZM141.979 66.0312L105.669 123.833L110.868 128.746L147.873 69.7584L141.979 66.0312ZM99.3917 27.4367H121.843L99.3917 4.99326V27.4367ZM149.187 67.7035C150.794 65.1526 152.34 62.7386 153.847 60.2964C155.095 58.2651 154.916 56.4133 152.973 55.0197C150.437 53.2159 147.8 51.5582 145.075 50.0549C143.293 49.0581 141.416 49.4266 140.457 50.8391C138.684 53.4514 137.058 56.1629 135.257 58.9737L149.187 67.7035ZM96.0547 136.956L108.958 130.64C105.794 126.455 101.202 123.577 96.0547 122.553V136.956Z" fill="url(#paint0_linear_848_19330)"/>
<path d="M10.3088 58.1658C10.3088 54.6323 10.356 51.0799 10.3088 47.5653C10.2757 45.945 10.9516 45.3781 12.5208 45.3876C19.4753 45.4285 26.4297 45.4285 33.3842 45.3876C34.9487 45.3876 35.6199 45.9214 35.6057 47.5464C35.5584 54.5567 35.5584 61.5655 35.6057 68.5726C35.6057 70.0843 35.0007 70.6795 33.4929 70.6701C26.4786 70.6323 19.4658 70.6323 12.4546 70.6701C10.8145 70.6701 10.2898 69.9568 10.3134 68.412C10.3513 65.0013 10.3088 61.5812 10.3088 58.1658ZM12.7855 68.0861H33.025V47.9479H12.7855V68.0861Z" fill="url(#paint1_linear_848_19330)"/>
<path d="M22.9523 142.172C19.4735 142.172 15.9994 142.12 12.5206 142.172C10.9372 142.209 10.2802 141.657 10.2897 140.036C10.3369 133.026 10.3369 126.016 10.2897 119.005C10.2897 117.48 10.9041 116.941 12.4119 116.95C19.4262 116.998 26.439 116.998 33.4502 116.95C34.958 116.95 35.5866 117.461 35.5772 118.991C35.5425 126.058 35.5425 133.127 35.5772 140.197C35.5772 141.614 35.01 142.195 33.5589 142.172C30.0281 142.129 26.4879 142.172 22.9523 142.172ZM33.0673 119.563H12.8373V139.64H33.0673V119.563Z" fill="url(#paint2_linear_848_19330)"/>
<path d="M10.3088 93.893C10.3088 90.3595 10.3466 86.8071 10.3088 83.2925C10.2852 81.7855 10.8712 81.1856 12.3979 81.1951C19.469 81.2391 26.54 81.2391 33.6111 81.1951C35.0716 81.1951 35.601 81.7997 35.5963 83.2027C35.5679 90.2697 35.5679 97.3383 35.5963 104.408C35.5963 105.802 35.0716 106.44 33.6111 106.43C26.54 106.393 19.469 106.393 12.3979 106.43C10.857 106.43 10.2946 105.797 10.3135 104.314C10.3418 100.842 10.3088 97.3698 10.3088 93.893ZM12.7855 103.87H33.0864V83.7696H12.7855V103.87Z" fill="url(#paint3_linear_848_19330)"/>
<path d="M80.2677 49.8516H46.8551C46.3825 49.8516 45.8342 49.9934 45.4371 49.7997C44.9638 49.466 44.5418 49.065 44.1846 48.6092C44.5724 48.1739 45.0085 47.784 45.4844 47.4471C45.8011 47.2724 46.2927 47.3999 46.7039 47.3999H113.884C114.295 47.3999 114.782 47.2724 115.103 47.4424C115.586 47.767 116.03 48.1458 116.426 48.5714C116.024 49.0412 115.562 49.4557 115.051 49.8044C114.682 50.0028 114.129 49.8516 113.657 49.8516H80.2677Z" fill="url(#paint4_linear_848_19330)"/>
<path d="M80.5042 56.8384H113.907C114.431 56.7693 114.964 56.7998 115.477 56.9282C115.697 57.0208 115.892 57.1627 116.049 57.3429C116.206 57.523 116.319 57.7367 116.379 57.9675C116.34 58.2056 116.247 58.4314 116.105 58.6273C115.964 58.8232 115.78 58.9837 115.566 59.0965C115.063 59.257 114.531 59.3069 114.007 59.2429H46.671C46.1983 59.2429 45.6548 59.3468 45.2814 59.1437C44.908 58.9406 44.2888 58.3737 44.2935 57.9816C44.2982 57.5895 44.9032 57.0935 45.3522 56.9046C45.8013 56.7156 46.3969 56.8384 46.9263 56.8384H80.5042Z" fill="url(#paint5_linear_848_19330)"/>
<path d="M77.1247 85.6024H46.8742C46.4016 85.6024 45.8627 85.7441 45.4563 85.5552C44.9772 85.2386 44.5458 84.8552 44.1753 84.4167C44.5539 83.975 44.9839 83.5802 45.4563 83.2404C45.7729 83.0609 46.2645 83.1885 46.6757 83.1885H107.508C107.919 83.1885 108.41 83.0609 108.722 83.2404C109.195 83.5802 109.625 83.975 110.003 84.4167C109.633 84.8538 109.203 85.237 108.727 85.5552C108.344 85.7441 107.782 85.6024 107.309 85.6024H77.1247Z" fill="url(#paint6_linear_848_19330)"/>
<path d="M74.6381 92.608H102.388C102.918 92.608 103.518 92.4758 103.962 92.6742C104.204 92.7813 104.421 92.938 104.598 93.1341C104.776 93.3302 104.91 93.5614 104.993 93.8126C105.049 94.1291 104.52 94.7196 104.123 94.9086C103.616 95.0574 103.083 95.1009 102.558 95.0361C83.9417 95.0361 65.3235 95.0361 46.7037 95.0361C46.3492 95.0361 45.919 95.159 45.6591 95.0031C45.1436 94.6396 44.6584 94.2352 44.208 93.7937C44.6807 93.3969 45.1155 92.849 45.6638 92.66C46.3113 92.4569 47.0818 92.608 47.7719 92.608H74.6381Z" fill="url(#paint7_linear_848_19330)"/>
<path d="M72.7384 104.366H46.7419C46.2692 104.366 45.7256 104.498 45.3239 104.309C44.9221 104.12 44.2793 103.577 44.2793 103.199C44.2793 102.821 44.8465 102.254 45.2861 102.028C45.6548 101.824 46.2314 101.938 46.7041 101.938H99.0752C99.5478 101.938 100.101 101.824 100.46 102.037C100.9 102.287 101.448 102.835 101.434 103.237C101.42 103.638 100.796 104.097 100.337 104.314C99.8787 104.531 99.3919 104.366 98.9192 104.366H72.7384Z" fill="url(#paint8_linear_848_19330)"/>
<path d="M72.8424 68.5963H46.6521C46.1794 68.5963 45.6265 68.7285 45.2625 68.5301C45.0273 68.4059 44.8194 68.2356 44.6514 68.0295C44.4833 67.8234 44.3584 67.5856 44.2841 67.3303C44.2368 67.0043 44.7851 66.4374 45.1916 66.2626C45.7037 66.1302 46.2366 66.0981 46.7609 66.1682H98.9666C99.1462 66.1682 99.3211 66.1682 99.5007 66.1682C100.418 66.1682 101.448 66.1682 101.481 67.3633C101.514 68.5585 100.498 68.6057 99.5904 68.6057C95.4026 68.6057 91.2149 68.6057 87.0271 68.6057L72.8424 68.5963Z" fill="url(#paint9_linear_848_19330)"/>
<path d="M33.0535 16.2315H12.9086C12.4359 16.2315 11.8923 16.3685 11.4906 16.1748C11.0179 15.948 10.4412 15.4426 10.4318 15.0458C10.4223 14.6489 10.9895 14.101 11.4385 13.8601C11.8025 13.6617 12.3555 13.7986 12.8282 13.7986H53.8223C54.7393 13.775 55.7697 13.7986 55.7933 14.9938C55.817 16.189 54.8102 16.2409 53.9027 16.2362H33.0535V16.2315Z" fill="url(#paint10_linear_848_19330)"/>
<path d="M33.077 27.276H12.9084C12.4358 27.276 11.8922 27.4036 11.4905 27.2146C11.0887 27.0257 10.4411 26.4777 10.4458 26.0998C10.4506 25.7219 11.0367 25.1928 11.4857 24.9566C11.8591 24.7629 12.431 24.8904 12.9037 24.8904H53.9498C54.8951 24.8904 55.9586 24.9471 55.7601 26.1706C55.6845 26.643 54.5927 27.2194 53.9593 27.2288C46.9969 27.3044 40.0346 27.276 33.077 27.276Z" fill="url(#paint11_linear_848_19330)"/>
<path d="M66.7402 121.367H46.7466C46.2212 121.438 45.6873 121.409 45.1726 121.282C44.9525 121.187 44.7574 121.043 44.6025 120.86C44.4475 120.677 44.3369 120.461 44.2793 120.229C44.3239 119.99 44.423 119.765 44.5689 119.571C44.7148 119.377 44.9036 119.219 45.1206 119.109C45.6281 118.961 46.1611 118.921 46.6851 118.991H87.5564C88.4308 119.034 89.499 118.883 89.5274 120.172C89.5558 121.462 88.497 121.372 87.6367 121.372L66.7402 121.367Z" fill="url(#paint12_linear_848_19330)"/>
<path d="M66.1069 130.811H46.6615C46.1387 130.88 45.6072 130.838 45.1017 130.688C44.8853 130.57 44.6986 130.405 44.5561 130.204C44.4135 130.004 44.3188 129.773 44.2793 129.53C44.2793 129.152 44.785 128.656 45.1868 128.458C45.5885 128.26 46.1321 128.382 46.6048 128.382H85.4956C85.9682 128.382 86.5071 128.264 86.9135 128.458C87.1317 128.562 87.3241 128.713 87.4769 128.9C87.6297 129.087 87.7392 129.305 87.7974 129.54C87.7596 129.781 87.6666 130.011 87.5256 130.211C87.3846 130.411 87.1995 130.576 86.9845 130.692C86.4784 130.84 85.9471 130.88 85.4246 130.811H66.1069Z" fill="url(#paint13_linear_848_19330)"/>
<path d="M54.8573 140.145H46.0279C45.1818 140.145 44.2507 140.145 44.2365 138.983C44.2223 137.821 45.1535 137.788 46.0042 137.788H63.6724C64.5138 137.788 65.4496 137.788 65.4591 138.959C65.4686 140.131 64.5469 140.145 63.6961 140.145H54.8573Z" fill="url(#paint14_linear_848_19330)"/>
<path d="M19.2754 61.7985C22.5841 58.4586 25.5145 55.492 28.4545 52.5301C29.0784 51.9018 29.7355 51.0846 30.6666 52.001C31.5977 52.9175 30.7942 53.5883 30.1655 54.2118C27.0932 57.2966 23.9737 60.3529 20.9439 63.4707C19.8048 64.647 18.9209 64.6139 17.881 63.4093C17.1106 62.5212 16.1322 61.8032 15.4374 60.8726C15.116 60.4427 15.253 59.6727 15.1821 59.0586C15.8013 59.0964 16.6001 58.9027 16.9971 59.2192C17.8101 59.8617 18.4057 60.7828 19.2754 61.7985Z" fill="url(#paint15_linear_848_19330)"/>
<path d="M21.4021 129.507C20.1877 128.463 19.0267 127.36 17.9233 126.2C17.5877 125.817 17.7578 124.991 17.7011 124.367C18.3298 124.424 19.1758 124.239 19.5492 124.575C20.7047 125.712 21.7997 126.909 22.8296 128.16C23.87 126.966 24.9745 125.829 26.1382 124.754C26.6109 124.367 27.4522 124.443 28.1281 124.282C28.0194 124.995 28.1281 125.916 27.7499 126.375C26.8046 127.471 25.5994 128.349 24.309 129.488C25.7506 130.829 26.9464 131.802 27.9438 132.95C28.2746 133.328 28.095 134.155 28.1518 134.774C27.5231 134.722 26.6959 134.906 26.3131 134.575C25.126 133.459 23.998 132.281 22.9335 131.047C21.7566 132.308 20.8869 133.409 19.8187 134.306C19.3177 134.717 18.1927 135.01 17.772 134.727C16.8267 134.098 17.4743 133.309 18.0982 132.695L21.4021 129.507Z" fill="url(#paint16_linear_848_19330)"/>
<path d="M19.3274 97.4973L27.9582 88.7958C28.2891 88.4651 28.5774 87.9833 28.9792 87.851C29.5394 87.7308 30.1138 87.6894 30.6855 87.7282C30.6855 88.3045 30.936 89.117 30.6524 89.4099C27.2586 92.9151 23.8051 96.362 20.2916 99.7506C19.9749 100.053 18.8736 99.9963 18.4765 99.6798C17.3238 98.7667 16.2788 97.7255 15.3617 96.5761C15.0498 96.1841 15.253 95.3763 15.2199 94.7574C15.8344 94.833 16.6379 94.7055 17.0397 95.0361C17.8574 95.6597 18.4766 96.5478 19.3274 97.4973Z" fill="url(#paint17_linear_848_19330)"/>
</g>
<defs>
<linearGradient id="paint0_linear_848_19330" x1="78.5117" y1="0.0236816" x2="78.5117" y2="157.01" gradientUnits="userSpaceOnUse">
<stop stop-color="#67BBF2"/>
<stop offset="1" stop-color="#A4DCB8"/>
</linearGradient>
<linearGradient id="paint1_linear_848_19330" x1="22.9568" y1="45.3875" x2="22.9568" y2="70.6702" gradientUnits="userSpaceOnUse">
<stop stop-color="#67BBF2"/>
<stop offset="1" stop-color="#A4DCB8"/>
</linearGradient>
<linearGradient id="paint2_linear_848_19330" x1="22.9334" y1="116.95" x2="22.9334" y2="142.173" gradientUnits="userSpaceOnUse">
<stop stop-color="#67BBF2"/>
<stop offset="1" stop-color="#A4DCB8"/>
</linearGradient>
<linearGradient id="paint3_linear_848_19330" x1="22.9522" y1="81.1949" x2="22.9522" y2="106.43" gradientUnits="userSpaceOnUse">
<stop stop-color="#67BBF2"/>
<stop offset="1" stop-color="#A4DCB8"/>
</linearGradient>
<linearGradient id="paint4_linear_848_19330" x1="80.3055" y1="47.354" x2="80.3055" y2="49.9067" gradientUnits="userSpaceOnUse">
<stop stop-color="#67BBF2"/>
<stop offset="1" stop-color="#A4DCB8"/>
</linearGradient>
<linearGradient id="paint5_linear_848_19330" x1="80.3364" y1="56.7992" x2="80.3364" y2="59.27" gradientUnits="userSpaceOnUse">
<stop stop-color="#67BBF2"/>
<stop offset="1" stop-color="#A4DCB8"/>
</linearGradient>
<linearGradient id="paint6_linear_848_19330" x1="77.0892" y1="83.1445" x2="77.0892" y2="85.6534" gradientUnits="userSpaceOnUse">
<stop stop-color="#67BBF2"/>
<stop offset="1" stop-color="#A4DCB8"/>
</linearGradient>
<linearGradient id="paint7_linear_848_19330" x1="74.6024" y1="92.554" x2="74.6024" y2="95.0821" gradientUnits="userSpaceOnUse">
<stop stop-color="#67BBF2"/>
<stop offset="1" stop-color="#A4DCB8"/>
</linearGradient>
<linearGradient id="paint8_linear_848_19330" x1="72.8567" y1="101.906" x2="72.8567" y2="104.426" gradientUnits="userSpaceOnUse">
<stop stop-color="#67BBF2"/>
<stop offset="1" stop-color="#A4DCB8"/>
</linearGradient>
<linearGradient id="paint9_linear_848_19330" x1="72.8816" y1="66.1321" x2="72.8816" y2="68.6395" gradientUnits="userSpaceOnUse">
<stop stop-color="#67BBF2"/>
<stop offset="1" stop-color="#A4DCB8"/>
</linearGradient>
<linearGradient id="paint10_linear_848_19330" x1="33.1127" y1="13.7526" x2="33.1127" y2="16.2785" gradientUnits="userSpaceOnUse">
<stop stop-color="#67BBF2"/>
<stop offset="1" stop-color="#A4DCB8"/>
</linearGradient>
<linearGradient id="paint11_linear_848_19330" x1="33.115" y1="24.8492" x2="33.115" y2="27.3181" gradientUnits="userSpaceOnUse">
<stop stop-color="#67BBF2"/>
<stop offset="1" stop-color="#A4DCB8"/>
</linearGradient>
<linearGradient id="paint12_linear_848_19330" x1="66.9036" y1="118.958" x2="66.9036" y2="121.405" gradientUnits="userSpaceOnUse">
<stop stop-color="#67BBF2"/>
<stop offset="1" stop-color="#A4DCB8"/>
</linearGradient>
<linearGradient id="paint13_linear_848_19330" x1="66.0384" y1="128.345" x2="66.0384" y2="130.844" gradientUnits="userSpaceOnUse">
<stop stop-color="#67BBF2"/>
<stop offset="1" stop-color="#A4DCB8"/>
</linearGradient>
<linearGradient id="paint14_linear_848_19330" x1="54.8478" y1="137.788" x2="54.8478" y2="140.145" gradientUnits="userSpaceOnUse">
<stop stop-color="#67BBF2"/>
<stop offset="1" stop-color="#A4DCB8"/>
</linearGradient>
<linearGradient id="paint15_linear_848_19330" x1="23.1362" y1="51.5908" x2="23.1362" y2="64.3332" gradientUnits="userSpaceOnUse">
<stop stop-color="#67BBF2"/>
<stop offset="1" stop-color="#A4DCB8"/>
</linearGradient>
<linearGradient id="paint16_linear_848_19330" x1="22.7233" y1="124.282" x2="22.7233" y2="134.839" gradientUnits="userSpaceOnUse">
<stop stop-color="#67BBF2"/>
<stop offset="1" stop-color="#A4DCB8"/>
</linearGradient>
<linearGradient id="paint17_linear_848_19330" x1="22.9863" y1="87.7141" x2="22.9863" y2="99.9497" gradientUnits="userSpaceOnUse">
<stop stop-color="#67BBF2"/>
<stop offset="1" stop-color="#A4DCB8"/>
</linearGradient>
<clipPath id="clip0_848_19330">
<rect width="157" height="157" fill="white"/>
</clipPath>
</defs>
</svg>
