<svg width="96" height="118" viewBox="0 0 96 118" fill="none" xmlns="http://www.w3.org/2000/svg">
<g clip-path="url(#clip0_848_19357)">
<path d="M65.1697 89.8608C68.5331 91.7297 69.008 93.8397 66.878 96.9533C68.6961 99.3576 68.7032 100.9 66.9028 103.138C66.9028 103.223 66.9028 103.333 66.9418 103.386C68.1751 104.805 68.6111 106.397 67.6967 108.152C66.8178 109.844 65.3221 110.411 63.5004 110.369C62.2671 110.34 61.0195 110.369 59.7826 110.369C58.6981 113.879 56.5929 116.436 53.0488 117.347C49.7339 118.195 46.2593 118.195 42.9444 117.347C39.4003 116.447 37.2739 113.911 36.1894 110.361C35.0553 110.361 33.9104 110.326 32.7657 110.361C30.866 110.436 29.2429 109.957 28.2966 108.159C27.3503 106.361 27.8393 104.744 29.1046 103.301C27.2935 100.464 27.2971 99.3257 29.1046 96.9604C27.1943 94.7156 27.0809 91.6588 30.9157 89.7864C30.3663 88.1729 30.0509 86.3785 29.1897 84.9033C27.501 82.0616 25.6625 79.3118 23.6821 76.6654C21.8711 74.215 19.6808 72.0553 17.9264 69.5553C2.15504 47.1929 15.7467 15.8799 42.8381 12.0784C47.6425 11.3875 52.5364 11.6593 57.2349 12.878C61.9335 14.0966 66.3429 16.2377 70.207 19.1768C74.0711 22.1159 77.3127 25.7944 79.7432 29.9983C82.1737 34.2021 83.7447 38.8476 84.3648 43.6644C85.7824 54.7215 82.6672 64.4736 75.4336 72.9313C73.4772 75.2186 71.5102 77.4952 69.6531 79.8605C67.3432 82.7645 65.8013 86.2037 65.1697 89.8608ZM63.3516 89.6977C64.3439 83.3997 68.044 78.6336 72.0843 74.0625C72.9065 73.1334 73.7253 72.2043 74.5156 71.2504C81.0262 63.4487 83.8544 54.4626 82.6671 44.3737C80.1295 22.4723 58.085 8.4045 37.1781 15.2416C13.4324 23.0042 5.28095 52.3065 21.5414 71.3461C26.241 76.8463 31.4012 82.0805 32.6027 89.6977H63.3516ZM47.9806 91.7474H32.0675C30.579 91.7474 29.7071 92.4992 29.6681 93.7971C29.6291 95.0951 30.547 96.0632 32.0356 96.0632C42.6916 96.0773 53.3465 96.0773 64.0002 96.0632C65.4781 96.0632 66.3889 95.1021 66.3286 93.7581C66.2719 92.4744 65.3895 91.7439 63.8939 91.7439L47.9806 91.7474ZM48.1331 97.932C42.8263 97.932 37.5195 97.932 32.2128 97.932C30.5506 97.932 29.6363 98.7122 29.6327 100.092C29.6292 101.471 30.5151 102.219 32.2128 102.219C37.6944 102.219 43.1772 102.219 48.6612 102.219C53.747 102.219 58.8293 102.219 63.901 102.219C64.989 102.219 65.8289 101.9 66.2294 100.854C66.8248 99.315 65.7191 97.9143 63.9045 97.9107C58.6556 97.9249 53.3961 97.932 48.1331 97.932ZM48.0622 104.202H43.5505C39.6519 104.202 35.7711 104.202 31.8832 104.202C30.5045 104.202 29.6752 105.056 29.6681 106.308C29.661 107.56 30.5081 108.436 31.8265 108.532C32.0463 108.553 32.266 108.532 32.4892 108.532H63.5182C65.3576 108.532 66.3534 107.73 66.3322 106.287C66.3109 104.844 65.4213 104.184 63.5748 104.18C58.4051 104.199 53.2343 104.209 48.0622 104.209V104.202ZM57.6774 110.503H38.2166C39.3543 113.748 42.062 115.847 45.2765 115.972C47.1265 116.042 48.9836 116.05 50.8337 115.972C54.0872 115.826 56.9686 113.475 57.6774 110.503Z" fill="url(#paint0_linear_848_19357)"/>
<path d="M13.0212 69.2786C12.8638 69.5105 12.6699 69.7152 12.447 69.885C10.8557 70.839 9.25736 71.8 7.61642 72.6511C7.26201 72.8284 6.70207 72.5482 6.23779 72.4809C6.38665 72.0376 6.40431 71.3851 6.71265 71.1865C8.30751 70.1616 9.95912 69.2148 11.632 68.3141C12.3656 67.9098 13.046 68.3353 13.0212 69.2786Z" fill="url(#paint1_linear_848_19357)"/>
<path d="M90.113 72.293C89.5991 72.5022 89.0178 72.9561 88.7449 72.8143C86.8807 71.8461 85.0662 70.7716 83.2835 69.6617C83.0779 69.534 82.9929 68.8815 83.1311 68.6297C83.2693 68.378 83.8789 68.1226 84.0844 68.2361C85.9699 69.2574 87.8129 70.3638 89.6558 71.4525C89.8118 71.527 89.8614 71.7965 90.113 72.293Z" fill="url(#paint2_linear_848_19357)"/>
<path d="M3.02696 32.7244C5.07901 33.4017 6.88648 33.9584 8.655 34.618C8.93499 34.7244 9.2823 35.4478 9.17243 35.6216C8.97042 35.9443 8.38925 36.3308 8.08799 36.2386C6.26985 35.728 4.47291 35.1251 2.70439 34.4655C2.53818 34.3577 2.40288 34.2085 2.31156 34.0326C2.22024 33.8567 2.17604 33.6601 2.18341 33.462C2.28973 33.1251 2.79305 32.93 3.02696 32.7244Z" fill="url(#paint3_linear_848_19357)"/>
<path d="M87.604 36.3983C87.3524 36.1678 86.8952 35.9444 86.8137 35.6181C86.7986 35.4364 86.8306 35.254 86.9063 35.0882C86.982 34.9224 87.099 34.7788 87.2461 34.6713C89.1067 34.001 90.9852 33.3875 92.8884 32.8521C93.14 32.7811 93.6858 33.1854 93.8275 33.4904C93.8428 33.6709 93.8106 33.8523 93.7341 34.0165C93.6576 34.1807 93.5395 34.3221 93.3916 34.4266C91.5416 35.111 89.6561 35.7139 87.604 36.3983Z" fill="url(#paint4_linear_848_19357)"/>
<path d="M17.7703 20.1957C17.7455 21.0574 16.9658 21.4581 16.3527 20.9404C14.935 19.7595 13.5564 18.5183 12.2415 17.224C12.0183 17.0041 12.0466 16.3197 12.2203 15.9863C12.3124 15.8055 13.1098 15.7381 13.3331 15.9225C14.7507 17.1034 16.1153 18.3587 17.4727 19.6105C17.6075 19.7853 17.7084 19.9838 17.7703 20.1957Z" fill="url(#paint5_linear_848_19357)"/>
<path d="M84.2191 16.582C84.0297 16.894 83.8127 17.1884 83.5706 17.4615C82.3762 18.5644 81.1925 19.6921 79.9166 20.6992C79.587 20.9616 78.9455 20.8304 78.4458 20.88C78.545 20.3836 78.4777 19.724 78.7718 19.4261C79.9414 18.2346 81.2031 17.1282 82.4861 16.0572C82.8363 15.8476 83.2523 15.7768 83.6521 15.8586C83.8541 15.887 83.9994 16.2877 84.2191 16.582Z" fill="url(#paint6_linear_848_19357)"/>
<path d="M94.9438 54.1789C92.9378 53.9555 91.3997 53.8242 89.8828 53.5725C89.5001 53.5051 89.1952 52.9696 88.855 52.6505C89.2767 52.3738 89.7056 51.849 90.1167 51.8597C91.6112 51.9027 93.1004 52.058 94.5717 52.3242C95.0892 52.42 95.5251 52.9732 95.9894 53.3171L94.9438 54.1789Z" fill="url(#paint7_linear_848_19357)"/>
<path d="M1.03841 54.1789L0 53.2995C0.432385 52.9626 0.82931 52.4165 1.31131 52.3314C2.78252 52.0657 4.27186 51.9128 5.76632 51.8739C6.21996 51.8739 6.68421 52.3846 7.14495 52.6612C6.75509 52.9803 6.40429 53.5051 5.9719 53.5832C4.51526 53.8527 3.0054 53.9555 1.03841 54.1789Z" fill="url(#paint8_linear_848_19357)"/>
<path d="M28.9166 4.06396C29.211 4.3087 29.4677 4.59547 29.6786 4.91505C30.3413 6.30516 30.997 7.70592 31.5321 9.14922C31.6739 9.50384 31.3833 10.0606 31.2876 10.5216C30.834 10.3053 30.1571 10.2095 29.9692 9.85491C29.2249 8.45771 28.6295 6.98249 27.9951 5.52854C27.6549 4.76966 27.8605 4.25191 28.9166 4.06396Z" fill="url(#paint9_linear_848_19357)"/>
<path d="M64.9603 10.9152C64.6945 10.3265 64.2337 9.79815 64.3507 9.49672C64.9728 7.85104 65.6826 6.23993 66.4772 4.67033C66.6189 4.39018 67.2852 4.21642 67.6609 4.2767C67.8522 4.30862 68.1571 5.05332 68.0472 5.34057C67.3986 6.97537 66.6614 8.57826 65.9207 10.1705C65.8286 10.3868 65.4742 10.5145 64.9603 10.9152Z" fill="url(#paint10_linear_848_19357)"/>
<path d="M48.87 3.54975C48.921 4.38406 48.908 5.22106 48.8311 6.05338C48.7744 6.408 48.2782 6.69524 47.984 7.0144C47.6969 6.6846 47.1795 6.36899 47.1618 6.02855C47.0768 4.35829 47.0732 2.68093 47.1618 1.01067C47.1795 0.65605 47.6793 0.33689 47.9557 0C48.2676 0.354621 48.7779 0.659594 48.8453 1.06386C48.9287 1.89578 48.9429 2.7332 48.8878 3.56748L48.87 3.54975Z" fill="url(#paint11_linear_848_19357)"/>
<path d="M72.9171 44.7885C75.0436 48.3347 74.6041 50.6788 71.3081 53.3632C72.4953 55.0725 72.9135 56.952 72.0807 58.9485C71.2478 60.945 69.7203 61.977 67.8277 62.399C67.4733 63.5338 67.2748 64.6437 66.7644 65.5906C65.6516 67.7537 63.2558 68.8424 60.6934 68.4062C60.3673 68.3205 60.0249 68.3192 59.6982 68.4023C59.3714 68.4854 59.0711 68.6503 58.8256 68.8814C58.0562 69.5529 57.1233 70.0093 56.1211 70.2046C55.119 70.3998 54.0832 70.3271 53.1181 69.9936C52.1531 69.6601 51.2931 69.0777 50.625 68.3052C49.957 67.5328 49.5044 66.5976 49.3131 65.5941C49.1217 64.7005 48.7 64.5941 47.9522 64.6012C47.2044 64.6083 46.8606 64.7182 46.6799 65.5409C45.6698 70.151 40.6017 71.8 36.969 68.7821C36.6656 68.5021 36.2721 68.3398 35.8596 68.3247C31.2948 68.8708 29.0938 67.1934 28.3177 62.5054C24.1533 61.3883 22.0587 57.5584 24.6105 53.3491C21.3286 50.4199 20.9742 48.512 23.0192 44.8169C20.1591 40.9161 20.758 37.8415 24.8586 35.4726C24.7204 34.7173 24.4298 33.9442 24.4652 33.1853C24.5609 31.1569 25.5923 29.7278 27.4671 28.8625C27.9724 28.609 28.3672 28.1787 28.5764 27.6532C29.2639 25.6461 30.6249 24.5468 32.6663 24.107C33.2636 23.9857 33.8093 23.6837 34.2293 23.2418C35.5017 21.7559 37.0646 21.2453 38.9643 21.4368C39.5357 21.5087 40.1156 21.4087 40.63 21.1495C43.5681 19.4473 46.4424 20.8658 46.7685 24.2631C46.8535 25.1319 46.7685 26.0149 46.7685 26.9866H49.0615C49.1111 25.9901 49.1076 25.0255 49.2174 24.0751C49.5718 20.9084 52.3611 19.5289 55.1574 21.0396C55.7442 21.3407 56.4031 21.4733 57.0606 21.4226C59.0205 21.263 60.6048 21.7985 61.8346 23.4084C62.1168 23.7599 62.5152 23.9989 62.958 24.0822C65.2653 24.3872 66.768 25.5574 67.4166 27.8306C67.5384 28.2246 67.8094 28.5555 68.1715 28.7526C71.1451 30.093 72.0701 32.1605 71.0069 35.4123C72.7258 36.2705 74.0902 37.4975 74.551 39.5153C75.0117 41.5331 74.3064 43.2601 72.9171 44.7885ZM38.1846 67.392C38.7382 67.9026 39.4217 68.2507 40.16 68.3984C40.8983 68.546 41.663 68.4874 42.3702 68.2289C43.841 67.7289 44.7909 66.6615 44.9539 65.1544C45.1169 63.6472 44.9893 62.094 44.9893 60.5018C44.4029 60.5997 43.8111 60.6625 43.2172 60.6897C42.6437 60.7255 42.0692 60.636 41.5338 60.4273C41.0695 60.1968 40.7611 59.6649 40.3819 59.2641C40.8738 59.0419 41.3807 58.8547 41.8988 58.7038C42.1717 58.6435 42.4942 58.8457 42.799 58.8705C44.5711 59.023 45.0708 58.5726 45.0708 56.7995C45.0708 49.3667 45.0708 41.9338 45.0708 34.501C45.0708 32.7279 44.5675 32.2881 42.7671 32.4761C42.4127 32.5116 42.0583 32.7066 41.7287 32.6534C41.2756 32.5395 40.8351 32.3803 40.4138 32.1782C40.7045 31.7704 40.9313 31.0753 41.2892 31.0044C42.5404 30.8052 43.8017 30.6762 45.0673 30.6179C45.0673 28.7809 45.0956 26.7986 45.0673 24.8198C45.0495 23.8872 44.9609 22.9191 43.9225 22.4722C42.8841 22.0254 41.8953 22.3836 41.1652 23.1815C40.5697 23.8304 40.0452 23.7985 39.2974 23.49C37.8301 22.8872 36.7102 23.2631 35.8915 24.3163C36.6606 25.4617 37.4367 26.5043 38.0605 27.632C38.1952 27.8767 37.8692 28.5008 37.5927 28.7987C37.4829 28.9157 36.8591 28.7136 36.6004 28.4972C36.3416 28.2809 36.2991 27.8731 36.1325 27.5646C35.797 26.9889 35.2926 26.5304 34.6878 26.2512C34.0829 25.9721 33.4069 25.8859 32.7514 26.0043C31.5145 26.2312 30.3768 27.2454 30.3733 28.515C30.3733 29.859 29.9444 30.3838 28.6012 30.5009C27.3927 30.6072 26.6697 31.5292 26.3932 32.6924C26.2571 33.2132 26.297 33.7645 26.5066 34.2603C26.7162 34.7561 27.0838 35.1687 27.5522 35.4336C28.0448 35.7599 28.7182 35.7882 29.2427 36.0897C29.6221 36.3658 29.9639 36.6901 30.2598 37.0542C29.8381 37.3273 29.4199 37.8167 28.9876 37.8273C28.3602 37.845 27.7294 37.4975 27.0879 37.3415C26.6842 37.1953 26.2542 37.1361 25.8261 37.1677C24.0541 37.5543 22.7818 39.7423 23.2354 41.5047C23.7458 43.4729 25.5179 44.6112 27.8428 44.3984C28.5516 44.3311 29.2144 44.4197 29.1541 45.2212C29.1293 45.5758 28.4701 46.0935 28.0412 46.1573C27.2141 46.282 26.3703 46.2386 25.5603 46.0297C24.8267 45.8311 24.4971 46.0722 24.1675 46.6184C22.9838 48.583 24.0612 51.3667 26.3188 51.9377C27.1021 52.1398 27.9704 51.9589 28.7997 52.0795C29.2392 52.1433 29.6397 52.4767 30.0579 52.6859C29.7389 53.0724 29.4837 53.5654 29.0797 53.8172C28.6803 54.0146 28.229 54.0816 27.7896 54.0087C26.4747 53.8455 25.9644 54.7179 25.5887 55.6896C25.3541 56.3857 25.3341 57.1363 25.5313 57.8439C25.7285 58.5516 26.1338 59.1835 26.6945 59.6578C27.3419 60.201 28.1362 60.5391 28.9764 60.6288C29.8166 60.7185 30.6644 60.5557 31.4117 60.1613C32.0744 59.828 32.8045 59.1861 33.283 60.25C33.6941 61.1649 32.7797 61.4131 32.2198 61.7855C32.0664 61.8749 31.9051 61.9497 31.7378 62.0089C30.1536 62.6614 29.9976 63.0728 30.8021 64.5834C31.0819 65.166 31.5111 65.664 32.0459 66.0265C32.5807 66.3891 33.2021 66.6033 33.8466 66.6473C35.732 66.7998 37.1816 66.1083 38.1633 64.4168C38.3582 64.0834 38.9784 63.9983 39.4037 63.8033C39.5065 64.2962 39.8255 64.8671 39.666 65.2714C39.2939 65.9913 38.7233 66.5941 38.1633 67.392H38.1846ZM57.8332 67.392C57.2662 66.5693 56.6956 65.9239 56.3696 65.1721C56.2242 64.8175 56.5715 64.2785 56.6956 63.821C57.1081 63.9445 57.5062 64.1122 57.8829 64.321C58.1168 64.477 58.1948 64.8494 58.3861 65.087C58.8707 65.7263 59.5313 66.2101 60.2868 66.4791C61.0423 66.7481 61.8598 66.7905 62.6391 66.6012C64.2127 66.2963 65.1767 65.2714 65.6303 63.7394C65.8643 62.9486 65.843 62.4167 64.8613 62.1685C64.1864 61.9686 63.5577 61.6371 63.0113 61.1933C62.9042 61.0484 62.8357 60.8786 62.8122 60.7C62.7886 60.5214 62.8107 60.3397 62.8765 60.172C62.9992 60.0368 63.1501 59.9305 63.3186 59.8606C63.4871 59.7907 63.669 59.759 63.8512 59.7677C64.1666 59.7677 64.4679 60.0798 64.7833 60.2322C67.2642 61.4202 70.0818 60.1259 70.6205 57.5442C71.0352 55.569 70.0357 54.2001 68.0581 54.0228C67.7037 53.9909 67.2783 54.0228 67.0267 53.842C66.6564 53.5049 66.3259 53.1265 66.0415 52.7143C66.4471 52.4795 66.8673 52.271 67.2996 52.0902C67.4733 52.0263 67.7214 52.2001 67.9376 52.2036C69.4686 52.2285 70.8331 51.849 71.7404 50.4979C72.1276 49.9802 72.3602 49.3632 72.411 48.7185C72.4618 48.0739 72.3288 47.428 72.0275 46.856C71.6731 46.168 71.3187 45.7389 70.3795 46.0722C69.6613 46.2972 68.8973 46.3338 68.1609 46.1786C67.686 46.0864 66.9453 45.5651 66.9346 45.2176C66.9063 44.3169 67.6647 44.3559 68.3877 44.4303C70.3689 44.636 72.109 43.5793 72.7151 41.8664C73.2325 40.4054 72.8037 39.1536 71.7759 38.1039C70.8296 37.1323 69.7628 36.7564 68.4479 37.5436C67.9397 37.8179 67.3587 37.927 66.7857 37.8557C66.5773 37.7965 66.3853 37.6902 66.2243 37.5451C66.0634 37.4001 65.9378 37.22 65.8572 37.0188C65.7899 36.8096 66.2612 36.345 66.566 36.1216C66.7893 35.9656 67.1721 36.0578 67.4663 35.9762C69.6813 35.3733 70.4752 32.8555 68.8839 31.3271C68.3806 30.8484 67.5407 30.7526 66.9205 30.3732C66.4703 30.0966 65.8571 29.6852 65.7863 29.2597C65.4992 27.3128 64.762 26.2525 63.2593 26.0043C61.7566 25.756 60.5481 26.4865 59.655 28.0752C59.4459 28.4476 58.8185 28.5824 58.3826 28.827C58.2727 28.327 57.9148 27.6852 58.1026 27.3483C58.7528 26.3136 59.4628 25.3178 60.2291 24.3659C59.3466 23.3304 58.2408 22.873 56.972 23.4191C56.0009 23.8375 55.4197 23.7028 54.6542 22.9864C53.2365 21.6779 51.2766 22.2098 51.11 23.9652C50.9151 26.2277 51.0604 28.5185 51.0604 30.8271C51.6275 30.7775 52.1236 30.7101 52.5914 30.6994C53.0773 30.6713 53.5649 30.6986 54.0446 30.781C54.7534 30.937 55.7528 30.9867 55.6111 32.0115C55.448 33.1392 54.5266 32.7208 53.8072 32.5825C53.592 32.5335 53.3743 32.4968 53.155 32.4725C51.4077 32.3449 50.9612 32.7562 50.9612 34.4868V56.9236C50.9612 58.5762 51.3156 58.9237 52.9494 58.8847C53.3393 58.8847 53.7469 58.6577 54.1154 58.7216C54.6395 58.8536 55.1498 59.0352 55.6394 59.2641C55.2673 59.6649 54.9484 60.328 54.516 60.4202C53.3854 60.6507 52.2087 60.6223 50.9718 60.7039C50.9718 62.0373 50.8939 63.4096 50.9718 64.7678C50.9928 65.5293 51.2466 66.2659 51.6991 66.8785C52.1516 67.4911 52.781 67.95 53.5023 68.1935C54.2208 68.4977 55.013 68.5829 55.7797 68.4384C56.5464 68.2939 57.2533 67.9262 57.812 67.3814L57.8332 67.392ZM46.9386 28.9618V62.7181H49.0332V28.9618H46.9386Z" fill="url(#paint12_linear_848_19357)"/>
<path d="M34.2861 80.8641C34.1089 81.1052 33.9636 81.4953 33.7049 81.6017C33.3799 81.6611 33.0445 81.619 32.7443 81.4811C32.6026 81.435 32.5175 81.2187 32.4112 81.0804C29.5759 77.3616 26.7406 73.644 23.9053 69.9276C23.721 69.6793 23.4126 69.463 23.3595 69.1935C23.2921 68.8389 23.3064 68.2751 23.5084 68.1297C23.7919 67.9453 24.2809 68.0658 24.6814 68.0765C24.7452 68.0765 24.8197 68.1828 24.8728 68.2538C27.8593 72.1286 30.8447 76.0093 33.8289 79.896C34.0102 80.2042 34.1632 80.5282 34.2861 80.8641Z" fill="url(#paint13_linear_848_19357)"/>
<path d="M37.3942 52.9591C36.4212 52.6596 35.4662 52.3044 34.534 51.8952C34.2647 51.764 34.247 51.1221 34.1123 50.7179C34.5234 50.5973 35.0373 50.2569 35.3244 50.3952C36.5489 51.0131 37.9614 51.146 39.2797 50.7675C39.5951 50.6824 40.0452 51.1221 40.4315 51.3065C40.2295 51.686 40.1161 52.2711 39.8042 52.4059C39.1415 52.6825 38.3794 52.7463 37.3942 52.9591Z" fill="url(#paint14_linear_848_19357)"/>
<path d="M34.7573 43.0545C34.9168 40.9977 35.5972 39.5473 37.0078 38.565C37.3622 38.3204 37.9931 38.4941 38.4963 38.4764C38.4247 38.9654 38.306 39.4464 38.1419 39.9126C37.6741 40.9126 37.1496 41.8843 36.5967 42.8382C36.3289 43.2236 36.0302 43.5865 35.7036 43.9233L34.7573 43.0545Z" fill="url(#paint15_linear_848_19357)"/>
<path d="M58.5634 52.9485C57.6278 52.7534 56.8977 52.7073 56.2704 52.4343C55.916 52.2818 55.753 51.7427 55.5049 51.3704C55.9231 51.1505 56.4051 50.6611 56.7453 50.7569C58.0336 51.1091 59.4057 50.9831 60.6084 50.4023C60.9167 50.2604 61.4342 50.5689 61.8559 50.6682C61.6929 51.108 61.6504 51.7853 61.3456 51.9378C60.4419 52.3366 59.5124 52.6743 58.5634 52.9485Z" fill="url(#paint16_linear_848_19357)"/>
<path d="M61.2215 43.0297L60.3071 43.9269C59.9707 43.6018 59.6658 43.2456 59.3963 42.863C58.847 41.9127 58.3331 40.9339 57.8617 39.9374C57.6879 39.4702 57.5562 38.9884 57.4683 38.4977C57.9715 38.4977 58.6095 38.3203 58.9533 38.5579C60.3852 39.5225 61.062 40.9765 61.2215 43.0297Z" fill="url(#paint17_linear_848_19357)"/>
</g>
<defs>
<linearGradient id="paint0_linear_848_19357" x1="47.9627" y1="11.7058" x2="47.9627" y2="117.983" gradientUnits="userSpaceOnUse">
<stop stop-color="#67BBF2"/>
<stop offset="1" stop-color="#A4DCB8"/>
</linearGradient>
<linearGradient id="paint1_linear_848_19357" x1="9.62984" y1="68.1615" x2="9.62984" y2="72.709" gradientUnits="userSpaceOnUse">
<stop stop-color="#67BBF2"/>
<stop offset="1" stop-color="#A4DCB8"/>
</linearGradient>
<linearGradient id="paint2_linear_848_19357" x1="86.5882" y1="68.2084" x2="86.5882" y2="72.8412" gradientUnits="userSpaceOnUse">
<stop stop-color="#67BBF2"/>
<stop offset="1" stop-color="#A4DCB8"/>
</linearGradient>
<linearGradient id="paint3_linear_848_19357" x1="5.68794" y1="32.7244" x2="5.68794" y2="36.2525" gradientUnits="userSpaceOnUse">
<stop stop-color="#67BBF2"/>
<stop offset="1" stop-color="#A4DCB8"/>
</linearGradient>
<linearGradient id="paint4_linear_848_19357" x1="90.3206" y1="32.8439" x2="90.3206" y2="36.3983" gradientUnits="userSpaceOnUse">
<stop stop-color="#67BBF2"/>
<stop offset="1" stop-color="#A4DCB8"/>
</linearGradient>
<linearGradient id="paint5_linear_848_19357" x1="14.9262" y1="15.8131" x2="14.9262" y2="21.1708" gradientUnits="userSpaceOnUse">
<stop stop-color="#67BBF2"/>
<stop offset="1" stop-color="#A4DCB8"/>
</linearGradient>
<linearGradient id="paint6_linear_848_19357" x1="81.3325" y1="15.8254" x2="81.3325" y2="20.88" gradientUnits="userSpaceOnUse">
<stop stop-color="#67BBF2"/>
<stop offset="1" stop-color="#A4DCB8"/>
</linearGradient>
<linearGradient id="paint7_linear_848_19357" x1="92.4222" y1="51.8595" x2="92.4222" y2="54.1789" gradientUnits="userSpaceOnUse">
<stop stop-color="#67BBF2"/>
<stop offset="1" stop-color="#A4DCB8"/>
</linearGradient>
<linearGradient id="paint8_linear_848_19357" x1="3.57247" y1="51.8739" x2="3.57247" y2="54.1789" gradientUnits="userSpaceOnUse">
<stop stop-color="#67BBF2"/>
<stop offset="1" stop-color="#A4DCB8"/>
</linearGradient>
<linearGradient id="paint9_linear_848_19357" x1="29.7073" y1="4.06396" x2="29.7073" y2="10.5216" gradientUnits="userSpaceOnUse">
<stop stop-color="#67BBF2"/>
<stop offset="1" stop-color="#A4DCB8"/>
</linearGradient>
<linearGradient id="paint10_linear_848_19357" x1="66.2012" y1="4.26477" x2="66.2012" y2="10.9152" gradientUnits="userSpaceOnUse">
<stop stop-color="#67BBF2"/>
<stop offset="1" stop-color="#A4DCB8"/>
</linearGradient>
<linearGradient id="paint11_linear_848_19357" x1="48.0087" y1="0" x2="48.0087" y2="7.0144" gradientUnits="userSpaceOnUse">
<stop stop-color="#67BBF2"/>
<stop offset="1" stop-color="#A4DCB8"/>
</linearGradient>
<linearGradient id="paint12_linear_848_19357" x1="47.97" y1="20.426" x2="47.97" y2="70.3116" gradientUnits="userSpaceOnUse">
<stop stop-color="#67BBF2"/>
<stop offset="1" stop-color="#A4DCB8"/>
</linearGradient>
<linearGradient id="paint13_linear_848_19357" x1="28.8047" y1="68.028" x2="28.8047" y2="81.6279" gradientUnits="userSpaceOnUse">
<stop stop-color="#67BBF2"/>
<stop offset="1" stop-color="#A4DCB8"/>
</linearGradient>
<linearGradient id="paint14_linear_848_19357" x1="37.2719" y1="50.3627" x2="37.2719" y2="52.9591" gradientUnits="userSpaceOnUse">
<stop stop-color="#67BBF2"/>
<stop offset="1" stop-color="#A4DCB8"/>
</linearGradient>
<linearGradient id="paint15_linear_848_19357" x1="36.6268" y1="38.433" x2="36.6268" y2="43.9233" gradientUnits="userSpaceOnUse">
<stop stop-color="#67BBF2"/>
<stop offset="1" stop-color="#A4DCB8"/>
</linearGradient>
<linearGradient id="paint16_linear_848_19357" x1="58.6804" y1="50.3656" x2="58.6804" y2="52.9485" gradientUnits="userSpaceOnUse">
<stop stop-color="#67BBF2"/>
<stop offset="1" stop-color="#A4DCB8"/>
</linearGradient>
<linearGradient id="paint17_linear_848_19357" x1="59.3449" y1="38.4341" x2="59.3449" y2="43.9269" gradientUnits="userSpaceOnUse">
<stop stop-color="#67BBF2"/>
<stop offset="1" stop-color="#A4DCB8"/>
</linearGradient>
<clipPath id="clip0_848_19357">
<rect width="96" height="118" fill="white"/>
</clipPath>
</defs>
</svg>
