<svg width="121" height="120" viewBox="0 0 121 120" fill="none" xmlns="http://www.w3.org/2000/svg">
<g clip-path="url(#clip0_848_19385)">
<path d="M58.9955 63.1971H63.7923V16.0782C63.7923 14.0171 63.836 13.9735 65.9594 13.9698H72.9122C75.2869 13.9698 75.2869 13.9699 75.2869 16.2745V63.168H80.1128V27.2927C80.1128 24.8608 80.1128 24.8608 82.6186 24.8608C85.0261 24.8608 87.4373 24.8608 89.8447 24.8608C91.4691 24.8608 91.6075 25.0207 91.6111 26.6783V63.1825H96.4042V23.9374C96.4042 21.7127 96.4261 21.6945 98.7097 21.6945C101.165 21.6945 103.618 21.6945 106.07 21.6945C107.771 21.6945 107.935 21.869 107.939 23.5739V63.2625H110.379C111.108 63.2625 111.993 63.2225 111.982 64.244C111.982 65.1782 111.155 65.1419 110.452 65.1419C100.817 65.1419 91.1838 65.1419 81.5515 65.1419C69.5566 65.1419 57.5618 65.1346 45.5669 65.1201C45.2027 65.1201 44.7911 65.2255 44.4742 65.0874C44.0879 64.8548 43.7328 64.5738 43.418 64.2513C43.7822 63.9205 44.0882 63.3607 44.4852 63.2989C45.4067 63.1535 46.3645 63.2516 47.4608 63.2516C47.4608 59.5074 47.4608 55.8941 47.4608 52.2807C47.4608 45.1158 47.4827 37.9546 47.4608 30.7897C47.4608 29.5574 47.9051 29.0957 49.1471 29.1248C51.8714 29.183 54.6104 29.2011 57.3238 29.1248C58.6933 29.0812 59.0356 29.6555 59.0247 30.8988C58.9883 37.0567 59.0247 43.211 59.0247 49.3653V63.1789L58.9955 63.1971ZM73.3311 63.1571V15.9401H65.7372V63.1607L73.3311 63.1571ZM105.979 63.1571V23.6285H98.3309V63.1644L105.979 63.1571ZM49.5551 56.0758C51.9115 54.7381 54.2898 53.4149 56.6172 52.0481C56.7563 51.9494 56.8733 51.8227 56.9605 51.6762C57.0477 51.5297 57.1032 51.3666 57.1235 51.1974C57.1854 50.176 57.1454 49.1472 57.1454 47.8604C55.3571 48.8637 53.8674 49.907 52.2139 50.5831C49.6898 51.6191 48.6299 53.2477 49.5551 56.0758ZM57.149 35.719C54.5157 37.1985 52.1519 38.5144 49.81 39.8667C49.686 39.9482 49.5809 40.0553 49.5018 40.1807C49.4226 40.306 49.3712 40.4469 49.3511 40.5937C49.3001 41.6588 49.3292 42.7275 49.3292 44.0544C51.9188 42.6003 54.3117 41.2553 56.6755 39.8703C56.8076 39.7612 56.9158 39.6262 56.9935 39.4736C57.0712 39.321 57.1167 39.1542 57.1271 38.9833C57.2036 38.0055 57.1635 37.024 57.1635 35.7226L57.149 35.719ZM49.4713 50.0378C51.937 48.6456 54.2971 47.326 56.639 45.9701C56.7643 45.888 56.8712 45.7811 56.9533 45.6561C57.0354 45.531 57.0908 45.3904 57.1162 45.2431C57.1708 44.1816 57.1417 43.1201 57.1417 41.8006C55.3206 42.8221 53.8419 43.9126 52.181 44.5342C49.606 45.5048 48.874 47.2388 49.362 49.7434C49.3839 49.7797 49.4057 49.8197 49.4859 50.0415L49.4713 50.0378ZM57.0251 54.0001C54.5157 55.4106 52.1191 56.7447 49.7408 58.1079C49.6341 58.18 49.5442 58.2741 49.477 58.3838C49.4098 58.4936 49.3668 58.6164 49.3511 58.744C49.311 59.8346 49.3328 60.9469 49.3328 62.2592C51.1721 61.2196 52.7019 60.1108 54.4028 59.4529C56.9705 58.4714 57.637 56.7447 57.0397 54.0038L57.0251 54.0001ZM89.5497 26.8601C89.4582 26.8327 89.3607 26.8327 89.2692 26.8601C87.0184 28.1106 84.7675 29.3647 82.5349 30.6479C82.4021 30.7196 82.2857 30.818 82.1929 30.9369C82.1001 31.0558 82.033 31.1926 81.9958 31.3386C81.9376 32.4292 81.9703 33.5197 81.9703 34.872C83.7914 33.8505 85.2847 32.7963 86.9382 32.1347C89.4914 31.1278 90.3473 29.4592 89.5643 26.8637L89.5497 26.8601ZM82.1488 59.0639C84.5635 57.6971 86.9237 56.3775 89.2619 55.018C89.3833 54.9297 89.4845 54.8166 89.5586 54.6862C89.6327 54.5558 89.678 54.4112 89.6917 54.2619C89.7427 53.204 89.7136 52.139 89.7136 50.8739C87.8925 51.8954 86.3519 52.9932 84.651 53.6548C82.1634 54.6218 81.5041 56.3157 81.9885 58.7186C82.0382 58.839 82.0966 58.9557 82.1634 59.0676L82.1488 59.0639ZM81.963 40.9645C84.5599 39.5104 86.9564 38.1509 89.3275 36.7659C89.4391 36.6663 89.529 36.5449 89.5917 36.4092C89.6543 36.2735 89.6884 36.1264 89.6917 35.9771C89.7318 34.9556 89.6917 33.9268 89.6917 32.6691C87.1094 34.1231 84.7129 35.4645 82.3345 36.8313C82.2309 36.9085 82.1449 37.0067 82.0821 37.1195C82.0193 37.2323 81.9812 37.3571 81.9703 37.4857C81.9703 38.5617 81.9703 39.634 81.9703 40.9681L81.963 40.9645ZM82.1269 53.0041C84.6109 51.5973 86.9965 50.2559 89.3639 48.8819C89.4639 48.801 89.5454 48.6999 89.6031 48.5852C89.6609 48.4705 89.6936 48.3449 89.699 48.2166C89.7318 47.1588 89.699 46.101 89.699 44.7996C87.8269 45.8538 86.2681 46.9807 84.5308 47.6495C82.116 48.5692 81.5515 50.1941 81.9594 52.4879C82.0031 52.5788 82.0359 52.6551 82.1415 53.0187L82.1269 53.0041ZM81.9521 47.0425C84.5817 45.5484 86.9346 44.2216 89.2729 42.8657C89.3819 42.7987 89.4753 42.7092 89.5469 42.6033C89.6185 42.4973 89.6666 42.3773 89.688 42.2513C89.7281 41.1608 89.7063 40.0702 89.7063 38.7289C87.1568 40.1829 84.8222 41.4698 82.5312 42.8184C82.3775 42.9312 82.2491 43.0748 82.1544 43.2401C82.0597 43.4054 82.0007 43.5887 81.9813 43.7781C81.923 44.7669 81.9703 45.7484 81.9703 47.0461L81.9521 47.0425ZM56.945 30.866C55.9653 31.0405 54.9418 31.0405 54.0822 31.4186C52.6956 32.0835 51.3505 32.8313 50.0541 33.6578C49.77 33.8251 49.3875 34.1268 49.3693 34.3849C49.2928 35.519 49.3365 36.6605 49.3365 37.98C51.5436 36.7332 53.4522 35.5045 55.4918 34.5594C57.098 33.8251 57.4513 32.7672 56.9596 30.8697L56.945 30.866ZM89.6189 57.1482C89.4957 57.1484 89.3731 57.1655 89.2547 57.1991C87.2442 58.3223 85.2701 59.511 83.2159 60.5507C82.0395 61.1469 81.6571 61.8993 82.1233 63.2153C82.7469 63.1826 83.3718 63.1826 83.9954 63.2153C86.2572 63.4479 87.8925 62.0048 89.4112 60.8124C90.0304 60.3289 89.6225 58.5332 89.6771 57.3372C89.6635 57.2738 89.644 57.2117 89.6189 57.1518V57.1482ZM51.6055 63.1135H57.0507V60.049L51.6055 63.1135ZM85.1718 27.0164L85.0771 26.7983H82.0322V28.7613L85.1718 27.0164Z" fill="url(#paint0_linear_848_19385)"/>
<path d="M24.2605 65.3782C28.0192 65.3782 31.6067 65.2401 35.187 65.4291C37.2702 65.5768 39.3288 65.9684 41.3203 66.596C46.0552 68.0028 49.497 70.8564 50.739 75.9347H59.116C62.394 75.9347 65.6719 76.011 68.9316 75.9347C72.3079 75.8329 75.0505 76.8726 76.6421 79.9733C78.2338 83.0741 77.6073 85.9386 75.1598 88.9013C77.254 88.6068 79.0167 88.4433 80.7431 88.1015C87.0623 86.8474 92.9517 84.3355 98.8229 81.7909C102.399 80.2387 106.009 78.7556 109.545 77.1125C114.419 74.8514 118.702 77.9922 120.242 81.2929C122.122 85.3316 120.527 90.2463 116.571 92.282C99.595 101.028 82.648 109.832 65.5808 118.415C61.2102 120.622 56.3771 120.302 51.7406 118.826C49.8959 118.196 48.1133 117.398 46.4157 116.441C39.3572 112.664 32.3607 108.826 25.3422 105.001C25.0399 104.838 24.7085 104.718 24.3661 104.565C24.0311 107.524 24.031 107.524 20.968 107.524C14.6039 107.524 8.24106 107.524 1.87941 107.524C0.185807 107.524 0 107.339 0 105.652V63.4843C0 61.8194 0.193021 61.6304 1.89755 61.6304C8.66712 61.6304 15.4391 61.6304 22.2136 61.6304C24.173 61.6304 24.2569 61.7249 24.2605 63.7242C24.2641 64.2113 24.2605 64.7057 24.2605 65.3782ZM24.3406 67.2394C24.3078 67.6247 24.2641 67.8901 24.2641 68.1518C24.2641 79.2172 24.2641 90.2826 24.2313 101.348C24.2313 102.22 24.6539 102.526 25.2767 102.86C29.4287 105.1 33.5759 107.347 37.7183 109.603C41.4661 111.639 45.1738 113.751 48.9689 115.689C54.0679 118.288 59.5858 119.255 64.7358 116.699C81.854 108.204 98.75 99.3451 115.726 90.5953C117.206 89.8035 118.324 88.4725 118.846 86.8792C119.367 85.2859 119.253 83.5532 118.527 82.0417C117.34 79.519 114.062 77.0725 110.234 78.7992C104.159 81.5365 98.0144 84.1283 91.8372 86.6366C86.221 88.9158 80.4263 90.6353 74.2892 90.6353C67.1105 90.6716 59.9355 90.6353 52.7568 90.5989C52.3069 90.6436 51.8527 90.5991 51.4202 90.468C51.2529 90.3821 51.1087 90.2573 50.9996 90.1043C50.8906 89.9512 50.8199 89.7743 50.7936 89.5883C50.7936 89.3011 51.2015 88.9158 51.5221 88.7886C51.9198 88.698 52.3309 88.6807 52.7349 88.7377L69.4889 88.9122C71.6195 88.934 73.437 88.2433 74.6353 86.4076C75.2156 85.5835 75.5488 84.6115 75.5959 83.6053C75.643 82.5991 75.402 81.6003 74.9012 80.7258C73.8522 78.7628 72.1368 77.7923 69.8932 77.7923C63.5291 77.7923 57.1674 77.7923 50.8082 77.7923C49.8612 77.7923 49.1401 77.6759 48.9106 76.5381C48.1057 72.5649 45.5235 70.1039 41.8522 68.7444C36.1777 66.6651 30.2919 66.8323 24.3406 67.254V67.2394ZM22.3192 63.5752H1.95589V105.587H22.3192V63.5752Z" fill="url(#paint1_linear_848_19385)"/>
<path d="M82.7756 15.0569L72.2315 7.21584C70.6836 8.10645 69.081 8.43724 67.3838 7.49574C67.1543 7.36487 66.608 7.58299 66.3276 7.79746C63.4139 10.044 60.5001 12.3014 57.6592 14.6134C57.4927 14.7863 57.3656 14.9931 57.2864 15.2195C57.2072 15.446 57.1778 15.6869 57.2003 15.9257C57.488 17.9613 56.6249 19.7389 54.8511 20.5169C54.0338 20.876 53.1196 20.9523 52.2539 20.7337C51.3881 20.515 50.6204 20.0139 50.0726 19.31C49.5323 18.6022 49.2397 17.737 49.2397 16.8472C49.2397 15.9574 49.5323 15.0922 50.0726 14.3844C51.2963 12.8431 53.1284 12.4759 55.1097 13.2938C55.3156 13.3679 55.535 13.3969 55.7531 13.3787C55.9712 13.3605 56.1828 13.2956 56.3735 13.1884C59.3334 10.9297 62.263 8.63355 65.1621 6.29978C65.3249 6.14313 65.4505 5.95217 65.5299 5.74086C65.6093 5.52955 65.6405 5.30321 65.621 5.07836C65.2568 3.21717 65.8249 1.73766 67.3801 0.716182C68.0188 0.260437 68.7857 0.0181533 69.5708 0.0240302C70.3559 0.0299072 71.119 0.283642 71.7507 0.748897C73.244 1.75583 73.8013 3.19536 73.4844 5.00567C73.475 5.22749 73.5152 5.44863 73.6021 5.65299C73.6891 5.85736 73.8206 6.03982 73.9871 6.18709C77.0902 8.55479 80.2224 10.8837 83.3838 13.1739C83.5776 13.2816 83.7921 13.3471 84.0131 13.3659C84.2341 13.3847 84.4566 13.3564 84.6658 13.2829C86.618 12.5123 88.064 12.814 89.6411 14.2862C89.8301 14.4409 90.0502 14.5533 90.2864 14.616C90.5226 14.6787 90.7695 14.6902 91.0106 14.6497C92.9883 14.1517 94.9513 13.5774 96.8853 12.9339C97.1066 12.8373 97.3046 12.6945 97.4661 12.5152C97.6275 12.3359 97.7487 12.1242 97.8214 11.8943C98.2912 9.91675 99.6716 8.62264 101.544 8.50268C102.458 8.43484 103.367 8.68183 104.121 9.20246C104.875 9.72308 105.427 10.4859 105.685 11.3635C105.926 12.2218 105.875 13.1356 105.541 13.9622C105.207 14.7888 104.608 15.4818 103.838 15.9329C103.055 16.4134 102.127 16.6008 101.218 16.4617C100.31 16.3225 99.4802 15.8659 98.8776 15.1732C98.711 14.9442 98.4708 14.7793 98.197 14.7058C97.9232 14.6324 97.6325 14.6549 97.3734 14.7697C95.4249 15.3695 93.4435 15.8602 91.4986 16.4855C91.2865 16.5569 91.0918 16.6722 90.9274 16.8237C90.763 16.9753 90.6325 17.1598 90.5443 17.3652C89.8159 19.9934 87.9111 21.3166 85.5364 20.764C83.3037 20.2442 82.1783 18.1576 82.7137 15.5367C82.7428 15.3731 82.7501 15.2423 82.7756 15.0569ZM53.1976 14.7188C52.9141 14.7196 52.6336 14.7771 52.3727 14.8879C52.1118 14.9987 51.8758 15.1605 51.6786 15.3638C51.4813 15.5671 51.3269 15.8077 51.2244 16.0716C51.1218 16.3354 51.0732 16.617 51.0815 16.8999C51.1022 17.4644 51.3416 17.9988 51.7492 18.3907C52.1568 18.7826 52.7008 19.0014 53.2668 19.001C53.549 18.9987 53.828 18.9401 54.0872 18.8286C54.3465 18.7171 54.5808 18.5549 54.7763 18.3517C54.9718 18.1484 55.1245 17.9082 55.2256 17.6452C55.3266 17.3821 55.3739 17.1015 55.3646 16.8199C55.3653 16.5386 55.3092 16.26 55.1997 16.0007C55.0902 15.7414 54.9296 15.5068 54.7274 15.3108C54.5253 15.1147 54.2856 14.9613 54.0228 14.8596C53.7599 14.7579 53.4793 14.71 53.1976 14.7188ZM88.6504 16.8454C88.6569 16.5642 88.6062 16.2846 88.5014 16.0234C88.3967 15.7623 88.2401 15.5251 88.041 15.326C87.8419 15.127 87.6044 14.9702 87.343 14.8652C87.0815 14.7602 86.8015 14.7092 86.5197 14.7152C85.9527 14.7216 85.4104 14.9478 85.0074 15.346C84.6044 15.7442 84.3722 16.2831 84.36 16.849C84.3657 17.4179 84.5961 17.9615 85.0013 18.3617C85.4064 18.762 85.9534 18.9865 86.5234 18.9865C86.8051 18.9894 87.0845 18.9359 87.3451 18.8292C87.6057 18.7224 87.8422 18.5645 88.0405 18.3648C88.2389 18.1652 88.3951 17.9278 88.4998 17.6668C88.6046 17.4058 88.6558 17.1265 88.6504 16.8454ZM67.3765 3.9951C67.3838 4.56169 67.6056 5.10455 67.9975 5.51455C68.3894 5.92456 68.9223 6.17133 69.489 6.20526C70.0574 6.20873 70.6052 5.9928 71.0179 5.6026C71.4305 5.2124 71.6762 4.67812 71.7034 4.11141C71.7122 3.82995 71.6645 3.54958 71.5633 3.28674C71.4621 3.02389 71.3092 2.78386 71.1138 2.58072C70.9184 2.37758 70.6844 2.21541 70.4254 2.10373C70.1664 1.99204 69.8877 1.93309 69.6055 1.93032C69.3233 1.91962 69.0417 1.96456 68.7769 2.06257C68.5121 2.16058 68.2692 2.30973 68.0622 2.5015C67.8551 2.69327 67.688 2.92389 67.5703 3.18017C67.4527 3.43646 67.3868 3.71338 67.3765 3.9951ZM101.824 14.5807C102.11 14.5865 102.394 14.5336 102.658 14.4252C102.922 14.3169 103.162 14.1554 103.361 13.9508C103.56 13.7462 103.715 13.5029 103.816 13.2361C103.917 12.9692 103.962 12.6845 103.948 12.3996C103.949 11.8493 103.732 11.3209 103.344 10.9294C102.957 10.538 102.43 10.3151 101.879 10.3094C101.595 10.2981 101.313 10.3441 101.048 10.4447C100.783 10.5453 100.541 10.6983 100.337 10.8946C100.133 11.0909 99.9706 11.3264 99.86 11.5869C99.7494 11.8474 99.6927 12.1275 99.6934 12.4105C99.683 12.6946 99.7306 12.9778 99.8335 13.2429C99.9363 13.5081 100.092 13.7495 100.291 13.9525C100.491 14.1556 100.73 14.316 100.993 14.424C101.257 14.532 101.539 14.5853 101.824 14.5807Z" fill="url(#paint2_linear_848_19385)"/>
<path d="M86.5415 102.504C86.1336 102.7 85.722 102.868 85.3213 103.089C79.4939 106.096 73.6446 109.12 67.7734 112.075C67.4092 112.264 66.7682 111.948 66.2583 111.865C66.4841 111.399 66.5897 110.698 66.9576 110.501C72.785 107.441 78.6125 104.434 84.4655 101.435C85.3615 100.977 86.0863 101.304 86.1117 102.079L86.5415 102.504Z" fill="url(#paint3_linear_848_19385)"/>
<path d="M102.8 94.154C102.436 94.3212 102.039 94.4703 101.671 94.6593C98.8155 96.1134 95.9783 97.6292 93.0937 99.0215C92.7295 99.196 92.1066 98.8434 91.604 98.738C91.8116 98.3017 91.9063 97.6474 92.2487 97.4693C95.0677 95.9353 97.9268 94.4703 100.793 93.0235C101.671 92.58 102.41 92.9544 102.385 93.7505L102.8 94.154Z" fill="url(#paint4_linear_848_19385)"/>
<path d="M12.9188 66.7486C13.9022 66.7358 14.8511 67.1102 15.5601 67.7905C16.269 68.4709 16.6809 69.4025 16.7067 70.3838C16.7217 70.8828 16.6374 71.3798 16.4588 71.8462C16.2801 72.3125 16.0106 72.7388 15.6658 73.1006C15.321 73.4623 14.9077 73.7522 14.45 73.9535C13.9922 74.1548 13.499 74.2635 12.9989 74.2734C12.0137 74.2756 11.0667 73.8932 10.3603 73.2078C9.65384 72.5224 9.24404 71.5885 9.21837 70.6055C9.20184 70.1083 9.28502 69.6128 9.46307 69.1481C9.64113 68.6835 9.91043 68.259 10.2552 67.8997C10.5999 67.5404 11.0132 67.2534 11.4706 67.0558C11.928 66.8581 12.4203 66.7537 12.9188 66.7486ZM14.8747 70.5582C14.8796 70.0558 14.6858 69.5717 14.3353 69.211C13.9848 68.8503 13.5059 68.6421 13.0025 68.6316C12.7535 68.6223 12.5052 68.6633 12.2724 68.7522C12.0396 68.841 11.8273 68.9759 11.648 69.1487C11.4688 69.3215 11.3263 69.5287 11.2292 69.7578C11.1321 69.9869 11.0825 70.2332 11.0832 70.4819C11.0695 70.9843 11.2556 71.4718 11.601 71.8376C11.9463 72.2034 12.4227 72.4178 12.9261 72.434C13.4297 72.4298 13.9126 72.233 14.2752 71.884C14.6377 71.535 14.8523 71.0605 14.8747 70.5582Z" fill="url(#paint5_linear_848_19385)"/>
<path d="M6.52701 85.5133C6.52701 87.3672 6.58889 89.2284 6.48691 91.0787C6.46141 91.5731 5.93692 92.042 5.64555 92.5328C5.31411 92.0857 4.70228 91.6422 4.69499 91.1878C4.61729 87.3418 4.61729 83.4946 4.69499 79.6462C4.69499 79.2172 5.19757 78.4975 5.56543 78.4284C6.40313 78.2721 6.53786 78.9846 6.53422 79.6862C6.51965 81.6201 6.52701 83.554 6.52701 85.5133Z" fill="url(#paint6_linear_848_19385)"/>
<path d="M6.52684 99.007C6.578 99.906 6.56335 100.807 6.48309 101.704C6.41753 102.119 5.91495 102.468 5.61265 102.842C5.29214 102.479 4.72032 102.115 4.69846 101.752C4.60377 99.9534 4.60377 98.1515 4.69846 96.3534C4.72032 95.968 5.27755 95.6263 5.58713 95.2628C5.90036 95.6663 6.41025 96.0371 6.48673 96.4806C6.57121 97.3201 6.58465 98.1653 6.52684 99.007Z" fill="url(#paint7_linear_848_19385)"/>
</g>
<defs>
<linearGradient id="paint0_linear_848_19385" x1="77.6999" y1="13.9698" x2="77.6999" y2="65.1586" gradientUnits="userSpaceOnUse">
<stop stop-color="#67BBF2"/>
<stop offset="1" stop-color="#A4DCB8"/>
</linearGradient>
<linearGradient id="paint1_linear_848_19385" x1="60.5142" y1="61.6304" x2="60.5142" y2="120.002" gradientUnits="userSpaceOnUse">
<stop stop-color="#67BBF2"/>
<stop offset="1" stop-color="#A4DCB8"/>
</linearGradient>
<linearGradient id="paint2_linear_848_19385" x1="77.5373" y1="0.0239258" x2="77.5373" y2="20.888" gradientUnits="userSpaceOnUse">
<stop stop-color="#67BBF2"/>
<stop offset="1" stop-color="#A4DCB8"/>
</linearGradient>
<linearGradient id="paint3_linear_848_19385" x1="76.3999" y1="101.226" x2="76.3999" y2="112.135" gradientUnits="userSpaceOnUse">
<stop stop-color="#67BBF2"/>
<stop offset="1" stop-color="#A4DCB8"/>
</linearGradient>
<linearGradient id="paint4_linear_848_19385" x1="97.202" y1="92.8344" x2="97.202" y2="99.0692" gradientUnits="userSpaceOnUse">
<stop stop-color="#67BBF2"/>
<stop offset="1" stop-color="#A4DCB8"/>
</linearGradient>
<linearGradient id="paint5_linear_848_19385" x1="12.9623" y1="66.7483" x2="12.9623" y2="74.2734" gradientUnits="userSpaceOnUse">
<stop stop-color="#67BBF2"/>
<stop offset="1" stop-color="#A4DCB8"/>
</linearGradient>
<linearGradient id="paint6_linear_848_19385" x1="5.59116" y1="78.4066" x2="5.59116" y2="92.5328" gradientUnits="userSpaceOnUse">
<stop stop-color="#67BBF2"/>
<stop offset="1" stop-color="#A4DCB8"/>
</linearGradient>
<linearGradient id="paint7_linear_848_19385" x1="5.59474" y1="95.2628" x2="5.59474" y2="102.842" gradientUnits="userSpaceOnUse">
<stop stop-color="#67BBF2"/>
<stop offset="1" stop-color="#A4DCB8"/>
</linearGradient>
<clipPath id="clip0_848_19385">
<rect width="121" height="120" fill="white"/>
</clipPath>
</defs>
</svg>
