<svg width="39" height="40" viewBox="0 0 39 40" fill="none" xmlns="http://www.w3.org/2000/svg">
<circle cx="19.5" cy="20" r="17" stroke="#E5E8EC" stroke-width="5"/>
<mask id="path-2-inside-1_110_10722" fill="white">
<path d="M0.786783 14.5168C-0.365165 18.4482 -0.24968 22.6425 1.11685 26.5046C2.48338 30.3666 5.03153 33.7002 8.39969 36.0323C11.7679 38.3643 15.7849 39.5763 19.8808 39.4963C23.9767 39.4163 27.9434 38.0483 31.2179 35.5865C34.4925 33.1247 36.9085 29.6942 38.1231 25.7817C39.3378 21.8692 39.2894 17.6736 37.9848 13.7902C36.6802 9.90676 34.1857 6.53286 30.8552 4.14728C27.5248 1.7617 23.5276 0.485614 19.4309 0.500122L19.4486 5.49711C22.4955 5.48632 25.4684 6.4354 27.9454 8.20966C30.4224 9.98392 32.2776 12.4932 33.2479 15.3815C34.2182 18.2697 34.2542 21.3902 33.3508 24.3001C32.4474 27.21 30.6505 29.7614 28.2151 31.5924C25.7797 33.4233 22.8295 34.4407 19.7832 34.5002C16.7369 34.5597 13.7493 33.6583 11.2442 31.9239C8.73918 30.1894 6.84401 27.7101 5.82767 24.8377C4.81132 21.9654 4.72543 18.8459 5.58218 15.9219L0.786783 14.5168Z"/>
</mask>
<path d="M0.786783 14.5168C-0.365165 18.4482 -0.24968 22.6425 1.11685 26.5046C2.48338 30.3666 5.03153 33.7002 8.39969 36.0323C11.7679 38.3643 15.7849 39.5763 19.8808 39.4963C23.9767 39.4163 27.9434 38.0483 31.2179 35.5865C34.4925 33.1247 36.9085 29.6942 38.1231 25.7817C39.3378 21.8692 39.2894 17.6736 37.9848 13.7902C36.6802 9.90676 34.1857 6.53286 30.8552 4.14728C27.5248 1.7617 23.5276 0.485614 19.4309 0.500122L19.4486 5.49711C22.4955 5.48632 25.4684 6.4354 27.9454 8.20966C30.4224 9.98392 32.2776 12.4932 33.2479 15.3815C34.2182 18.2697 34.2542 21.3902 33.3508 24.3001C32.4474 27.21 30.6505 29.7614 28.2151 31.5924C25.7797 33.4233 22.8295 34.4407 19.7832 34.5002C16.7369 34.5597 13.7493 33.6583 11.2442 31.9239C8.73918 30.1894 6.84401 27.7101 5.82767 24.8377C4.81132 21.9654 4.72543 18.8459 5.58218 15.9219L0.786783 14.5168Z" stroke="#ED5252" stroke-width="10" mask="url(#path-2-inside-1_110_10722)"/>
<path d="M18.7102 27.4545V12.9091H19.642V27.4545H18.7102ZM21.625 17.4205C21.5644 16.8826 21.3144 16.4659 20.875 16.1705C20.4356 15.8712 19.8826 15.7216 19.2159 15.7216C18.7386 15.7216 18.3258 15.7973 17.9773 15.9489C17.6288 16.0966 17.358 16.3011 17.1648 16.5625C16.9754 16.8201 16.8807 17.1136 16.8807 17.4432C16.8807 17.7197 16.9451 17.9583 17.0739 18.1591C17.2064 18.3598 17.3788 18.5284 17.5909 18.6648C17.8068 18.7973 18.0379 18.9091 18.2841 19C18.5303 19.0871 18.767 19.1591 18.9943 19.2159L20.1307 19.5114C20.5019 19.6023 20.8826 19.7254 21.2727 19.8807C21.6629 20.036 22.0246 20.2405 22.358 20.4943C22.6913 20.7481 22.9602 21.0625 23.1648 21.4375C23.3731 21.8125 23.4773 22.2614 23.4773 22.7841C23.4773 23.4432 23.3068 24.0284 22.9659 24.5398C22.6288 25.0511 22.1383 25.4545 21.4943 25.75C20.8542 26.0455 20.0795 26.1932 19.1705 26.1932C18.2992 26.1932 17.5455 26.0549 16.9091 25.7784C16.2727 25.5019 15.7746 25.1098 15.4148 24.6023C15.0549 24.0909 14.8561 23.4848 14.8182 22.7841H16.5795C16.6136 23.2045 16.75 23.5549 16.9886 23.8352C17.2311 24.1117 17.5398 24.3182 17.9148 24.4545C18.2936 24.5871 18.7083 24.6534 19.1591 24.6534C19.6553 24.6534 20.0966 24.5758 20.483 24.4205C20.8731 24.2614 21.1799 24.0417 21.4034 23.7614C21.6269 23.4773 21.7386 23.1458 21.7386 22.767C21.7386 22.4223 21.6402 22.1402 21.4432 21.9205C21.25 21.7008 20.9867 21.5189 20.6534 21.375C20.3239 21.2311 19.9508 21.1042 19.5341 20.9943L18.1591 20.6193C17.2273 20.3655 16.4886 19.9924 15.9432 19.5C15.4015 19.0076 15.1307 18.3561 15.1307 17.5455C15.1307 16.875 15.3125 16.2898 15.6761 15.7898C16.0398 15.2898 16.5322 14.9015 17.1534 14.625C17.7746 14.3447 18.4754 14.2045 19.2557 14.2045C20.0436 14.2045 20.7386 14.3428 21.3409 14.6193C21.947 14.8958 22.4242 15.2765 22.7727 15.7614C23.1212 16.2424 23.303 16.7955 23.3182 17.4205H21.625Z" fill="#AFB4BD"/>
</svg>
