<svg width="80" height="80" viewBox="0 0 80 80" fill="none" xmlns="http://www.w3.org/2000/svg">
<g clip-path="url(#clip0_2390_23068)">
<circle cx="40" cy="40" r="40" fill="#F9FAFB"/>
<path fill-rule="evenodd" clip-rule="evenodd" d="M40.0009 18C33.5286 18 28.2796 23.2418 28.2783 29.7103C28.2578 36.1589 33.4719 41.4058 39.9237 41.4276L39.9287 41.4276H40.0009C46.4749 41.4276 51.7215 36.1816 51.7215 29.7127C51.7215 23.2435 46.4745 18 40.0009 18ZM31.2087 29.7127C31.2087 24.8612 35.1454 20.9285 40.0009 20.9285C44.8561 20.9285 48.7911 24.8608 48.7911 29.7127C48.7911 34.5651 44.8557 38.4992 40.0009 38.4992H39.9314C35.0989 38.4816 31.1923 34.5501 31.2087 29.7177L31.2087 29.7127Z" fill="#898E96"/>
<path fill-rule="evenodd" clip-rule="evenodd" d="M40.0012 44.5757C34.9917 44.5757 30.1772 44.9297 26.5688 46.0774C24.7597 46.6529 23.1336 47.4642 21.943 48.6367C20.7114 49.8496 20 51.4003 20 53.2623C20 55.1207 20.7052 56.6727 21.9302 57.8906C23.1153 59.0689 24.7357 59.888 26.5427 60.4708C30.1462 61.633 34.9624 62 40.0012 62C45.0109 62 49.8249 61.6454 53.4326 60.4973C55.2415 59.9217 56.8671 59.1103 58.0574 57.9379C59.2887 56.7252 60 55.1749 60 53.3134C60 51.4555 59.2949 49.9039 58.0702 48.6861C56.8855 47.508 55.2655 46.6888 53.4587 46.1058C49.8558 44.9433 45.0402 44.5757 40.0012 44.5757ZM23.0769 53.2623C23.0769 52.2639 23.4286 51.4908 24.1027 50.8269C24.8179 50.1226 25.9403 49.5042 27.502 49.0075C30.6355 48.0108 35.0523 47.6506 40.0012 47.6506C44.9746 47.6506 49.3892 48.0239 52.5133 49.032C54.0701 49.5343 55.1879 50.1577 55.9 50.8658C56.5722 51.5342 56.9231 52.3122 56.9231 53.3134C56.9231 54.3112 56.5716 55.0841 55.8976 55.7479C55.1826 56.4521 54.0604 57.0706 52.499 57.5674C49.3662 58.5643 44.95 58.9251 40.0012 58.9251C35.0277 58.9251 30.6125 58.5523 27.4877 57.5445C25.9306 57.0424 24.8126 56.419 24.1003 55.7108C23.428 55.0424 23.0769 54.2642 23.0769 53.2623Z" fill="#898E96"/>
</g>
<defs>
<clipPath id="clip0_2390_23068">
<rect width="80" height="80" fill="white"/>
</clipPath>
</defs>
</svg>
