<svg width="24" height="24" viewBox="0 0 24 24" fill="none" xmlns="http://www.w3.org/2000/svg">
<path d="M16.8383 21.7747C17.1364 22.0751 17.6198 22.0751 17.9179 21.7747L22.7764 16.8793C23.0745 16.5789 23.0745 16.0919 22.7764 15.7915C22.4783 15.4911 21.9949 15.4911 21.6967 15.7915L18.1415 19.3737L18.1415 2.76923C18.1415 2.3444 17.7997 2 17.3781 2C16.9565 2 16.6147 2.3444 16.6147 2.76923L16.6147 19.3737L13.0595 15.7915C12.7613 15.4911 12.2779 15.4911 11.9798 15.7915C11.6817 16.0919 11.6817 16.5789 11.9798 16.8793L16.8383 21.7747Z" fill="#898E96"/>
<path d="M7.16174 2.2253C6.8636 1.9249 6.38022 1.9249 6.08208 2.2253L1.22361 7.12066C0.925465 7.42106 0.925465 7.90811 1.2236 8.20851C1.52174 8.50892 2.00512 8.50892 2.30326 8.20851L5.85847 4.62632L5.85846 21.2308C5.85846 21.6556 6.20027 22 6.6219 22C7.04353 22 7.38533 21.6556 7.38533 21.2308L7.38534 4.62632L10.9405 8.20852C11.2387 8.50892 11.7221 8.50892 12.0202 8.20852C12.3183 7.90811 12.3183 7.42106 12.0202 7.12066L7.16174 2.2253Z" fill="#898E96"/>
</svg>
