<svg width="40" height="40" viewBox="0 0 40 40" fill="none" xmlns="http://www.w3.org/2000/svg">
<rect width="40" height="40" rx="6" fill="#EFFAF4"/>
<rect x="11.5227" y="9.74964" width="19.5" height="19.5" rx="4.43182" stroke="#64C68D" stroke-width="1.77273"/>
<rect width="13" height="10" transform="translate(21.0001 21)" fill="#EFFAF4"/>
<path d="M22.7728 25.4325L26.3183 28.978L32.5228 22.7734" stroke="#64C68D" stroke-width="1.77273" stroke-linecap="round"/>
<path d="M18.7572 23.8511V14.1816H19.3767V23.8511H18.7572ZM20.4003 17.3733C20.37 17.0686 20.2404 16.8319 20.0112 16.6632C19.7821 16.4945 19.4711 16.4101 19.0783 16.4101C18.8113 16.4101 18.586 16.4479 18.4022 16.5235C18.2183 16.5965 18.0773 16.6985 17.9791 16.8294C17.8834 16.9603 17.8356 17.1089 17.8356 17.2751C17.8306 17.4136 17.8595 17.5345 17.9225 17.6377C17.9879 17.7409 18.0773 17.8303 18.1906 17.9059C18.304 17.9789 18.4349 18.0431 18.5835 18.0985C18.732 18.1514 18.8907 18.1967 19.0594 18.2345L19.7544 18.4007C20.0918 18.4762 20.4015 18.5769 20.6835 18.7029C20.9656 18.8288 21.2098 18.9836 21.4163 19.1674C21.6228 19.3513 21.7827 19.5678 21.896 19.8171C22.0118 20.0664 22.071 20.3522 22.0735 20.6745C22.071 21.1479 21.9501 21.5584 21.7109 21.9058C21.4742 22.2508 21.1318 22.519 20.6835 22.7104C20.2378 22.8992 19.7002 22.9937 19.0707 22.9937C18.4462 22.9937 17.9023 22.898 17.439 22.7066C16.9782 22.5152 16.6181 22.2319 16.3587 21.8567C16.1019 21.479 15.9672 21.0119 15.9546 20.4554H17.5372C17.5548 20.7148 17.6291 20.9314 17.7601 21.1051C17.8935 21.2763 18.071 21.406 18.2926 21.4941C18.5167 21.5798 18.7698 21.6226 19.0518 21.6226C19.3288 21.6226 19.5693 21.5823 19.7733 21.5017C19.9797 21.4211 20.1396 21.3091 20.253 21.1655C20.3663 21.022 20.4229 20.8571 20.4229 20.6707C20.4229 20.497 20.3713 20.3509 20.2681 20.2326C20.1673 20.1142 20.0188 20.0135 19.8224 19.9304C19.6285 19.8473 19.3905 19.7718 19.1085 19.7038L18.2662 19.4923C17.614 19.3336 17.0991 19.0856 16.7213 18.7482C16.3436 18.4108 16.156 17.9562 16.1586 17.3846C16.156 16.9163 16.2807 16.5071 16.5325 16.1571C16.7868 15.8071 17.1356 15.5338 17.5788 15.3374C18.0219 15.141 18.5255 15.0428 19.0896 15.0428C19.6637 15.0428 20.1648 15.141 20.5929 15.3374C21.0235 15.5338 21.3584 15.8071 21.5976 16.1571C21.8368 16.5071 21.9602 16.9125 21.9678 17.3733H20.4003Z" fill="#64C68D"/>
</svg>
