<svg width="20" height="22" viewBox="0 0 20 22" fill="none" xmlns="http://www.w3.org/2000/svg">
<path fill-rule="evenodd" clip-rule="evenodd" d="M5.89744 0C2.64037 0 0 2.63423 0 5.88372V16.1163C0 19.3658 2.64037 22 5.89744 22H14.1026C17.3596 22 20 19.3658 20 16.1163V5.88372C20 2.63423 17.3596 0 14.1026 0H5.89744ZM1.53846 5.88372C1.53846 3.48192 3.49004 1.53488 5.89744 1.53488H14.1026C16.51 1.53488 18.4615 3.48192 18.4615 5.88372V16.1163C18.4615 18.5181 16.51 20.4651 14.1026 20.4651H5.89744C3.49004 20.4651 1.53846 18.5181 1.53846 16.1163V5.88372ZM5.12842 6.40986C5.12842 5.98502 5.47281 5.64062 5.89765 5.64062H8.97457C9.39941 5.64062 9.7438 5.98502 9.7438 6.40986C9.7438 6.83469 9.39941 7.17909 8.97457 7.17909H5.89765C5.47281 7.17909 5.12842 6.83469 5.12842 6.40986ZM5.89765 10.2578C5.47281 10.2578 5.12842 10.6022 5.12842 11.027C5.12842 11.4519 5.47281 11.7963 5.89765 11.7963H14.1028C14.5276 11.7963 14.872 11.4519 14.872 11.027C14.872 10.6022 14.5276 10.2578 14.1028 10.2578H5.89765ZM5.89765 14.8711C5.47281 14.8711 5.12842 15.2155 5.12842 15.6403C5.12842 16.0652 5.47281 16.4096 5.89765 16.4096H14.1028C14.5276 16.4096 14.872 16.0652 14.872 15.6403C14.872 15.2155 14.5276 14.8711 14.1028 14.8711H5.89765Z" fill="#898E96"/>
</svg>
