<svg width="82" height="82" viewBox="0 0 82 82" fill="none" xmlns="http://www.w3.org/2000/svg">
<rect width="82" height="82" rx="10" fill="#F9FAFB"/>
<path d="M48.2916 20.168C43.0833 20.168 38.9166 24.3346 38.9166 29.543C38.9166 34.7513 43.0833 38.918 48.2916 38.918C50.1666 38.918 51.8333 38.293 53.2916 37.4596L59.75 43.918L62.6666 41.0013L56.2083 34.543C57.0416 33.0846 57.6666 31.418 57.6666 29.543C57.6666 24.3346 53.5 20.168 48.2916 20.168ZM24.3333 24.3346C23.2282 24.3346 22.1684 24.7736 21.387 25.555C20.6056 26.3364 20.1666 27.3962 20.1666 28.5013V57.668C20.1666 58.773 20.6056 59.8328 21.387 60.6143C22.1684 61.3957 23.2282 61.8346 24.3333 61.8346H53.5C54.605 61.8346 55.6648 61.3957 56.4462 60.6143C57.2276 59.8328 57.6666 58.773 57.6666 57.668V47.2513L53.5 43.0846V57.668H24.3333V28.5013H34.8125C34.9375 27.043 35.2916 25.6888 35.7916 24.3346H24.3333ZM48.2916 24.3346C51.2083 24.3346 53.5 26.6263 53.5 29.543C53.5 32.4596 51.2083 34.7513 48.2916 34.7513C45.375 34.7513 43.0833 32.4596 43.0833 29.543C43.0833 26.6263 45.375 24.3346 48.2916 24.3346Z" fill="#CAD0D9"/>
</svg>
