<svg width="24" height="24" viewBox="0 0 24 24" fill="none" xmlns="http://www.w3.org/2000/svg">
<path d="M12 3C11.6767 3 11.4146 3.28112 11.4146 3.62791V13.1467L9.64929 11.5233C9.40385 11.2976 9.03431 11.328 8.82389 11.5913C8.61348 11.8546 8.64187 12.251 8.88731 12.4767L11.6186 14.9883C11.7277 15.0887 11.8628 15.1391 11.9979 15.1395L12 15.1395C12.1522 15.1395 12.2909 15.0772 12.395 14.975L15.1126 12.4768C15.3581 12.2511 15.3866 11.8547 15.1762 11.5914C14.9658 11.3281 14.5963 11.2976 14.3508 11.5232L12.5854 13.1461V3.62791C12.5854 3.28112 12.3233 3 12 3Z" fill="#0D99FF"/>
<path d="M7.5392 21C5.5666 21 4 19.2325 4 17.0974V12.764C4 10.6281 5.5665 8.86047 7.5392 8.86047H8.28707C8.61036 8.86047 8.87244 9.14159 8.87244 9.48837C8.87244 9.83516 8.61036 10.1163 8.28707 10.1163H7.5392C6.24946 10.1163 5.17073 11.282 5.17073 12.764V17.0974C5.17073 18.5783 6.24935 19.7442 7.5392 19.7442H16.4608C17.7506 19.7442 18.8293 18.5783 18.8293 17.0974V12.7551C18.8293 11.2782 17.7543 10.1163 16.4696 10.1163H15.7137C15.3904 10.1163 15.1284 9.83516 15.1284 9.48837C15.1284 9.14159 15.3904 8.86047 15.7137 8.86047H16.4696C18.4377 8.86047 20 10.6248 20 12.7551V17.0974C20 19.2325 18.4334 21 16.4608 21H7.5392Z" fill="#0D99FF"/>
</svg>
