<svg width="20" height="20" viewBox="0 0 20 20" fill="none" xmlns="http://www.w3.org/2000/svg">
  <path d="M1.42473 0.574395C1.36894 0.51861 1.30272 0.474358 1.22983 0.444168C1.15694 0.413977 1.07882 0.398438 0.999928 0.398438C0.921035 0.398437 0.842915 0.413977 0.770028 0.444168C0.69714 0.474358 0.630913 0.51861 0.575128 0.574395C0.519342 0.630181 0.475091 0.696408 0.4449 0.769295C0.414709 0.842183 0.39917 0.920303 0.39917 0.999195C0.39917 1.07809 0.414709 1.15621 0.4449 1.2291C0.475091 1.30198 0.519342 1.36821 0.575128 1.424L4.77513 5.6216C2.69501 7.04039 1.2469 9.21128 0.735928 11.6768C0.719854 11.754 0.719147 11.8336 0.733846 11.9111C0.748546 11.9886 0.778364 12.0625 0.821599 12.1284C0.864834 12.1944 0.920639 12.2512 0.985827 12.2956C1.05102 12.34 1.12431 12.3711 1.20153 12.3872C1.27875 12.4033 1.35837 12.404 1.43586 12.3893C1.51335 12.3746 1.58719 12.3448 1.65316 12.3015C1.71912 12.2583 1.77593 12.2025 1.82033 12.1373C1.86473 12.0721 1.89585 11.9988 1.91193 11.9216C2.14085 10.8135 2.58851 9.76216 3.2287 8.82917C3.8689 7.89617 4.68877 7.10026 5.64033 6.488L7.54353 8.3912C7.05005 8.74703 6.63977 9.20583 6.34108 9.73584C6.04238 10.2659 5.86239 10.8544 5.81357 11.4609C5.76475 12.0673 5.84826 12.6771 6.05832 13.2481C6.26838 13.819 6.59998 14.3376 7.03018 14.7677C7.46037 15.1979 7.97889 15.5295 8.54987 15.7396C9.12084 15.9497 9.73063 16.0332 10.3371 15.9844C10.9435 15.9355 11.5321 15.7555 12.0621 15.4568C12.5921 15.1582 13.0509 14.7479 13.4067 14.2544L18.5751 19.424C18.6878 19.5367 18.8406 19.6 18.9999 19.6C19.1593 19.6 19.3121 19.5367 19.4247 19.424C19.5374 19.3113 19.6007 19.1585 19.6007 18.9992C19.6007 18.8399 19.5374 18.6871 19.4247 18.5744L1.42473 0.574395ZM12.5427 13.3904C12.3032 13.7725 11.9807 14.0957 11.599 14.336C11.2174 14.5762 10.7864 14.7274 10.3383 14.7781C9.89022 14.8289 9.43643 14.7779 9.01072 14.6291C8.585 14.4803 8.19832 14.2374 7.87943 13.9185C7.56054 13.5996 7.31765 13.2129 7.16883 12.7872C7.02 12.3615 6.96906 11.9077 7.01981 11.4596C7.07056 11.0115 7.22168 10.5806 7.46194 10.1989C7.70219 9.81727 8.0254 9.4947 8.40753 9.2552L12.5427 13.3904ZM10.1487 7.6016L14.1975 11.6504C14.1599 10.5886 13.7213 9.58042 12.97 8.82912C12.2187 8.07781 11.2106 7.63918 10.1487 7.6016ZM9.99993 5.1992C9.31593 5.1992 8.64513 5.288 8.00073 5.4548L7.03713 4.4912C7.99101 4.16562 8.99201 3.99939 9.99993 3.9992C14.4315 3.9992 18.3303 7.2068 19.2639 11.6768C19.2964 11.8327 19.2656 11.9952 19.1783 12.1284C19.0909 12.2617 18.9543 12.3547 18.7983 12.3872C18.6424 12.4197 18.4799 12.3888 18.3467 12.3015C18.2135 12.2142 18.1204 12.0775 18.0879 11.9216C17.2695 7.9916 13.8483 5.1992 9.99993 5.1992Z" fill="#AFB4BD"/>
</svg>
