<svg width="40" height="40" viewBox="0 0 40 40" fill="none" xmlns="http://www.w3.org/2000/svg">
<circle cx="20" cy="20" r="20" fill="#FDF4E7"/>
<path fill-rule="evenodd" clip-rule="evenodd" d="M20.0005 9C16.7643 9 14.1398 11.6209 14.1392 14.8551C14.1289 18.0795 16.7359 20.7029 19.9619 20.7138L19.9643 20.7138H20.0005C23.2374 20.7138 25.8607 18.0908 25.8607 14.8564C25.8607 11.6218 23.2372 9 20.0005 9ZM15.6044 14.8564C15.6044 12.4306 17.5727 10.4642 20.0005 10.4642C22.428 10.4642 24.3955 12.4304 24.3955 14.8564C24.3955 17.2825 22.4278 19.2496 20.0005 19.2496H19.9657C17.5495 19.2408 15.5962 17.2751 15.6044 14.8589L15.6044 14.8564Z" fill="#F2A450"/>
<path fill-rule="evenodd" clip-rule="evenodd" d="M20.0006 22.2879C17.4958 22.2879 15.0886 22.4649 13.2844 23.0387C12.3798 23.3264 11.5668 23.7321 10.9715 24.3184C10.3557 24.9248 10 25.7001 10 26.6311C10 27.5604 10.3526 28.3364 10.9651 28.9453C11.5576 29.5344 12.3678 29.944 13.2713 30.2354C15.0731 30.8165 17.4812 31 20.0006 31C22.5055 31 24.9124 30.8227 26.7163 30.2487C27.6207 29.9609 28.4336 29.5551 29.0287 28.969C29.6444 28.3626 30 27.5874 30 26.6567C30 25.7278 29.6475 24.9519 29.0351 24.3431C28.4427 23.754 27.6327 23.3444 26.7294 23.0529C24.9279 22.4717 22.5201 22.2879 20.0006 22.2879ZM11.5385 26.6311C11.5385 26.132 11.7143 25.7454 12.0514 25.4134C12.4089 25.0613 12.9701 24.7521 13.751 24.5037C15.3177 24.0054 17.5261 23.8253 20.0006 23.8253C22.4873 23.8253 24.6946 24.012 26.2567 24.516C27.0351 24.7671 27.5939 25.0789 27.95 25.4329C28.2861 25.7671 28.4615 26.1561 28.4615 26.6567C28.4615 27.1556 28.2858 27.542 27.9488 27.874C27.5913 28.2261 27.0302 28.5353 26.2495 28.7837C24.6831 29.2822 22.475 29.4626 20.0006 29.4626C17.5138 29.4626 15.3062 29.2762 13.7438 28.7723C12.9653 28.5212 12.4063 28.2095 12.0502 27.8554C11.714 27.5212 11.5385 27.1321 11.5385 26.6311Z" fill="#F2A450"/>
<circle cx="27.5" cy="29.5" r="6.5" fill="#FDF4E7"/>
<path d="M29.5771 31.7604L27.5834 29.7667V26.8333M27.5833 34.1667C26.3153 34.1667 25.2345 33.7199 24.3411 32.8265C23.447 31.9324 23 30.8514 23 29.5833C23 28.3153 23.447 27.2342 24.3411 26.3402C25.2345 25.4467 26.3153 25 27.5833 25C28.8514 25 29.9324 25.4467 30.8265 26.3402C31.7199 27.2342 32.1667 28.3153 32.1667 29.5833C32.1667 30.8514 31.7199 31.9324 30.8265 32.8265C29.9324 33.7199 28.8514 34.1667 27.5833 34.1667Z" stroke="#F2A450" stroke-width="1.3"/>
</svg>
