<svg width="41" height="40" viewBox="0 0 41 40" fill="none" xmlns="http://www.w3.org/2000/svg">
<rect x="0.666748" width="40" height="40" rx="6" fill="#FCF0ED"/>
<path d="M20.7052 15.3846C20.7052 15.6395 20.9118 15.8462 21.1667 15.8462C21.4216 15.8462 21.6283 15.6395 21.6283 15.3846L20.7052 15.3846ZM21.4931 7.67364C21.3129 7.4934 21.0206 7.4934 20.8404 7.67364L17.9032 10.6109C17.7229 10.7911 17.7229 11.0833 17.9032 11.2636C18.0834 11.4438 18.3757 11.4438 18.5559 11.2636L21.1667 8.65271L23.7776 11.2636C23.9578 11.4438 24.2501 11.4438 24.4303 11.2636C24.6106 11.0833 24.6106 10.7911 24.4303 10.6109L21.4931 7.67364ZM21.6283 15.3846L21.6283 8L20.7052 8L20.7052 15.3846L21.6283 15.3846Z" fill="#ED5252"/>
<path d="M29.2052 22.717H12.1283V22.0179C12.1283 21.3353 12.3912 20.6835 12.8549 20.2051C13.3181 19.7272 13.9431 19.4615 14.5917 19.4615H26.7417C27.0632 19.4615 27.3819 19.5268 27.6797 19.6541C27.9776 19.7814 28.2492 19.9684 28.4786 20.2051C28.7081 20.4419 28.8908 20.7237 29.0158 21.0349C29.1407 21.3461 29.2052 21.6802 29.2052 22.0179V22.717ZM12.1283 25.033H29.2052V28.9821C29.2052 29.3198 29.1407 29.6539 29.0158 29.9651C28.8908 30.2763 28.7081 30.5581 28.4786 30.7949C28.2492 31.0316 27.9776 31.2186 27.6797 31.3459C27.3819 31.4732 27.0632 31.5385 26.7417 31.5385H14.5917C13.9431 31.5385 13.3181 31.2728 12.8549 30.7949C12.3912 30.3165 12.1283 29.6647 12.1283 28.9821V25.033ZM26.2917 27.3599H24.0417C23.7356 27.3599 23.445 27.4855 23.233 27.7042C23.0216 27.9224 22.9052 28.2153 22.9052 28.5179C22.9052 28.8204 23.0216 29.1133 23.233 29.3315C23.445 29.5502 23.7356 29.6758 24.0417 29.6758H26.2917C26.5979 29.6758 26.8885 29.5502 27.1005 29.3315C27.3119 29.1133 27.4283 28.8204 27.4283 28.5179C27.4283 28.2153 27.3119 27.9224 27.1005 27.7042C26.8885 27.4855 26.5979 27.3599 26.2917 27.3599Z" fill="#ED5252" stroke="#ED5252" stroke-width="0.923077"/>
</svg>
