<svg width="24" height="24" viewBox="0 0 24 24" fill="none" xmlns="http://www.w3.org/2000/svg">
<path d="M20.217 8.57255L20.217 8.57254C19.7814 7.96188 19.1747 7.24765 18.5096 6.56357C17.8445 5.8795 17.1501 5.25541 16.5564 4.80737L16.5564 4.80737C15.5444 4.04415 15.0452 3.95 14.75 3.95H7.5625C6.67232 3.95 5.95 4.69501 5.95 5.60714V20.3929C5.95 21.305 6.67232 22.05 7.5625 22.05H19.4375C20.3277 22.05 21.05 21.305 21.05 20.3929V10.4286C21.05 10.1262 20.959 9.61341 20.217 8.57255ZM17.5529 7.54353L17.5529 7.54357C18.1172 8.12402 18.566 8.64943 18.9055 9.09286H16.0487V6.15502C16.4794 6.50394 16.9912 6.96463 17.5529 7.54353ZM19.7 20.3929C19.7 20.5414 19.5786 20.6643 19.4375 20.6643H7.56281C7.49384 20.6634 7.42766 20.6348 7.37846 20.5842C7.32919 20.5335 7.3009 20.4648 7.3 20.3926V5.60714C7.3 5.45972 7.42156 5.33571 7.5625 5.33571H14.7V9.78571C14.7 9.96902 14.7708 10.1451 14.8972 10.2751C15.0237 10.4052 15.1955 10.4786 15.375 10.4786H19.7V20.3929Z" fill="#898E96" stroke="#898E96" stroke-width="0.1"/>
<path d="M13.4889 2.80911L13.4888 2.809C12.4833 2.04442 11.9872 1.95 11.6937 1.95H4.55244C3.66742 1.95 2.95 2.69669 2.95 3.61002V18.4222C2.95 19.223 3.49988 19.8945 4.23163 20.0489L4.29196 20.0617V20V3.61002C4.29196 3.46202 4.4141 3.33801 4.55244 3.33801H14H14.1355L14.0325 3.25C13.8548 3.09815 13.6743 2.95112 13.4889 2.80911Z" fill="#898E96" stroke="#898E96" stroke-width="0.1"/>
</svg>
