<svg width="52" height="52" viewBox="0 0 52 52" fill="none" xmlns="http://www.w3.org/2000/svg">
<rect width="52" height="52" rx="10" fill="#F9FAFB"/>
<path d="M26.3536 12.6464C26.1583 12.4512 25.8417 12.4512 25.6464 12.6464L22.4645 15.8284C22.2692 16.0237 22.2692 16.3403 22.4645 16.5355C22.6597 16.7308 22.9763 16.7308 23.1716 16.5355L26 13.7071L28.8284 16.5355C29.0237 16.7308 29.3403 16.7308 29.5355 16.5355C29.7308 16.3403 29.7308 16.0237 29.5355 15.8284L26.3536 12.6464ZM25.5 21C25.5 21.2761 25.7239 21.5 26 21.5C26.2761 21.5 26.5 21.2761 26.5 21H25.5ZM25.5 13V21H26.5V13H25.5Z" fill="#70757E"/>
<path d="M17.3055 26.3055C17.8212 25.7897 18.5207 25.5 19.25 25.5H32.75C33.1111 25.5 33.4687 25.5711 33.8024 25.7093C34.136 25.8475 34.4392 26.0501 34.6945 26.3055C34.9499 26.5608 35.1525 26.864 35.2907 27.1976C35.4289 27.5313 35.5 27.8889 35.5 28.25V29H16.5V28.25C16.5 27.5207 16.7897 26.8212 17.3055 26.3055ZM16.5 35.75V31.5H35.5V35.75C35.5 36.1111 35.4289 36.4687 35.2907 36.8024C35.1525 37.136 34.9499 37.4392 34.6945 37.6945C34.4392 37.9499 34.136 38.1525 33.8024 38.2907C33.4687 38.4289 33.1111 38.5 32.75 38.5H19.25C18.5207 38.5 17.8212 38.2103 17.3055 37.6945C16.7897 37.1788 16.5 36.4793 16.5 35.75ZM32.25 34H29.75C29.4185 34 29.1005 34.1317 28.8661 34.3661C28.6317 34.6005 28.5 34.9185 28.5 35.25C28.5 35.5815 28.6317 35.8995 28.8661 36.1339C29.1005 36.3683 29.4185 36.5 29.75 36.5H32.25C32.5815 36.5 32.8995 36.3683 33.1339 36.1339C33.3683 35.8995 33.5 35.5815 33.5 35.25C33.5 34.9185 33.3683 34.6005 33.1339 34.3661C32.8995 34.1317 32.5815 34 32.25 34Z" fill="#70757E" stroke="#70757E"/>
</svg>
