<svg width="20" height="20" viewBox="0 0 20 20" fill="none" xmlns="http://www.w3.org/2000/svg">
<path d="M9.90845 1.5H7.54128C6.94596 1.49999 6.46579 1.49999 6.07695 1.53429C5.6766 1.5696 5.32495 1.64421 4.9996 1.82318C4.48282 2.10745 4.06266 2.56106 3.79935 3.11898C3.63358 3.47022 3.56447 3.84987 3.53176 4.2821C3.49999 4.70188 3.49999 5.22027 3.5 5.86298V14.137C3.49999 14.7797 3.49999 15.2981 3.53176 15.7179C3.56447 16.1501 3.63358 16.5298 3.79935 16.881C4.06266 17.4389 4.48282 17.8925 4.9996 18.1768C5.32495 18.3558 5.6766 18.4304 6.07695 18.4657C6.46579 18.5 6.94595 18.5 7.54126 18.5H9.90845C10.2118 18.5 10.4577 18.2345 10.4577 17.907C10.4577 17.5795 10.2118 17.314 9.90845 17.314H7.56479C6.94046 17.314 6.50524 17.3135 6.16641 17.2836C5.834 17.2543 5.64301 17.1996 5.49835 17.12C5.18828 16.9495 4.93619 16.6773 4.7782 16.3426C4.70449 16.1864 4.65386 15.9802 4.6267 15.6213C4.59902 15.2555 4.59859 14.7857 4.59859 14.1116V5.88837C4.59859 5.21434 4.59902 4.74448 4.6267 4.37868C4.65386 4.0198 4.70449 3.81361 4.7782 3.65744C4.93619 3.32268 5.18828 3.05052 5.49835 2.87995C5.64301 2.80038 5.834 2.74572 6.16641 2.7164C6.50524 2.68651 6.94046 2.68605 7.56479 2.68605H9.90845C10.2118 2.68605 10.4577 2.42054 10.4577 2.09302C10.4577 1.76551 10.2118 1.5 9.90845 1.5Z" fill="#AFB4BD"/>
<path d="M12.6785 6.4673C12.893 6.23571 13.2408 6.23571 13.4553 6.4673L16.3391 9.58067C16.3918 9.63753 16.4315 9.70306 16.4583 9.773C16.4852 9.84292 16.5 9.91959 16.5 10C16.5 10.1518 16.4464 10.3035 16.3391 10.4193L13.4553 13.5327C13.2408 13.7643 12.893 13.7643 12.6785 13.5327C12.464 13.3011 12.464 12.9256 12.6785 12.694L14.6246 10.593H8.26056C7.9572 10.593 7.71127 10.3275 7.71127 10C7.71127 9.67248 7.9572 9.40698 8.26056 9.40698H14.6246L12.6785 7.30596C12.464 7.07437 12.464 6.69889 12.6785 6.4673Z" fill="#AFB4BD"/>
</svg>
