<svg width="20" height="20" viewBox="0 0 20 20" fill="none" xmlns="http://www.w3.org/2000/svg">
<g clip-path="url(#clip0_475_94165)">
<path d="M14.5699 18H5.42994C5.23754 17.9954 5.04791 17.953 4.87191 17.8752C4.6959 17.7973 4.53695 17.6856 4.40415 17.5463C4.27136 17.407 4.16731 17.2429 4.09795 17.0633C4.02859 16.8838 3.99529 16.6924 3.99994 16.5V6.61499H4.99994V16.5C4.99517 16.5611 5.00252 16.6225 5.02157 16.6808C5.04063 16.739 5.07101 16.7929 5.11097 16.8394C5.15093 16.8859 5.19968 16.924 5.25442 16.9515C5.30917 16.9791 5.36881 16.9956 5.42994 17H14.5699C14.6311 16.9956 14.6907 16.9791 14.7455 16.9515C14.8002 16.924 14.8489 16.8859 14.8889 16.8394C14.9289 16.7929 14.9593 16.739 14.9783 16.6808C14.9974 16.6225 15.0047 16.5611 14.9999 16.5V6.61499H15.9999V16.5C16.0046 16.6924 15.9713 16.8838 15.9019 17.0633C15.8326 17.2429 15.7285 17.407 15.5957 17.5463C15.4629 17.6856 15.304 17.7973 15.128 17.8752C14.952 17.953 14.7623 17.9954 14.5699 18Z" fill="#AFB4BD"/>
<path d="M16.39 5.5H3.5C3.36739 5.5 3.24021 5.44732 3.14645 5.35355C3.05268 5.25979 3 5.13261 3 5C3 4.86739 3.05268 4.74021 3.14645 4.64645C3.24021 4.55268 3.36739 4.5 3.5 4.5H16.39C16.5226 4.5 16.6498 4.55268 16.7436 4.64645C16.8373 4.74021 16.89 4.86739 16.89 5C16.89 5.13261 16.8373 5.25979 16.7436 5.35355C16.6498 5.44732 16.5226 5.5 16.39 5.5Z" fill="#AFB4BD"/>
<path d="M11.5 7.5H12.5V15H11.5V7.5Z" fill="#AFB4BD"/>
<path d="M7.5 7.5H8.5V15H7.5V7.5Z" fill="#AFB4BD"/>
<path d="M12.5 3.93H11.55V3H8.45V3.93H7.5V3C7.49968 2.74322 7.59815 2.49616 7.775 2.31C7.95186 2.12384 8.19354 2.01284 8.45 2H11.55C11.8065 2.01284 12.0481 2.12384 12.225 2.31C12.4019 2.49616 12.5003 2.74322 12.5 3V3.93Z" fill="#AFB4BD"/>
</g>
<defs>
<clipPath id="clip0_475_94165">
<rect width="18" height="18" fill="white" transform="translate(1 1)"/>
</clipPath>
</defs>
</svg>
