<svg width="40" height="40" viewBox="0 0 40 40" fill="none" xmlns="http://www.w3.org/2000/svg">
<rect width="40" height="40" rx="6" fill="#EFFAF4"/>
<path d="M13.25 13C12.388 13 11.5614 13.3424 10.9519 13.9519C10.3424 14.5614 10 15.388 10 16.25V23.75C10 24.612 10.3424 25.4386 10.9519 26.0481C11.5614 26.6576 12.388 27 13.25 27H19.5C20.5 26 20.5 26 22 25.5H13.25C12.7859 25.5 12.3408 25.3156 12.0126 24.9874C11.6844 24.6592 11.5 24.2141 11.5 23.75V19H30V16.25C30 15.8232 29.9159 15.4006 29.7526 15.0063C29.5893 14.612 29.3499 14.2537 29.0481 13.9519C28.7463 13.6501 28.388 13.4107 27.9937 13.2474C27.5994 13.0841 27.1768 13 26.75 13H13.25ZM28.5 16.25V17.5H11.5V16.25C11.5 15.284 12.284 14.5 13.25 14.5H26.75C27.716 14.5 28.5 15.284 28.5 16.25Z" fill="#64C68D"/>
<path fill-rule="evenodd" clip-rule="evenodd" d="M26.0003 20C24.2204 20 22.7769 21.3104 22.7765 22.9276C22.7709 24.5397 24.2048 25.8514 25.979 25.8569L25.9804 25.8569H26.0003C27.7806 25.8569 29.2234 24.5454 29.2234 22.9282C29.2234 21.3109 27.7805 20 26.0003 20ZM23.5824 22.9282C23.5824 21.7153 24.665 20.7321 26.0003 20.7321C27.3354 20.7321 28.4175 21.7152 28.4175 22.9282C28.4175 24.1413 27.3353 25.1248 26.0003 25.1248H25.9811C24.6522 25.1204 23.5779 24.1375 23.5824 22.9294L23.5824 22.9282Z" fill="#64C68D"/>
<path fill-rule="evenodd" clip-rule="evenodd" d="M26.0003 26.6439C24.6227 26.6439 23.2987 26.7324 22.3064 27.0194C21.8089 27.1632 21.3617 27.3661 21.0343 27.6592C20.6956 27.9624 20.5 28.3501 20.5 28.8156C20.5 29.2802 20.6939 29.6682 21.0308 29.9727C21.3567 30.2672 21.8023 30.472 22.2992 30.6177C23.2902 30.9082 24.6146 31 26.0003 31C27.378 31 28.7018 30.9114 29.694 30.6243C30.1914 30.4804 30.6385 30.2776 30.9658 29.9845C31.3044 29.6813 31.5 29.2937 31.5 28.8284C31.5 28.3639 31.3061 27.976 30.9693 27.6715C30.6435 27.377 30.198 27.1722 29.7012 27.0265C28.7104 26.7358 27.3861 26.6439 26.0003 26.6439ZM21.3462 28.8156C21.3462 28.566 21.4429 28.3727 21.6282 28.2067C21.8249 28.0307 22.1336 27.8761 22.5631 27.7519C23.4247 27.5027 24.6394 27.4126 26.0003 27.4126C27.368 27.4126 28.582 27.506 29.4412 27.758C29.8693 27.8836 30.1767 28.0394 30.3725 28.2165C30.5573 28.3835 30.6538 28.578 30.6538 28.8284C30.6538 29.0778 30.5572 29.271 30.3718 29.437C30.1752 29.613 29.8666 29.7676 29.4372 29.8919C28.5757 30.1411 27.3613 30.2313 26.0003 30.2313C24.6326 30.2313 23.4184 30.1381 22.5591 29.8861C22.1309 29.7606 21.8235 29.6047 21.6276 29.4277C21.4427 29.2606 21.3462 29.066 21.3462 28.8156Z" fill="#64C68D"/>
<path fill-rule="evenodd" clip-rule="evenodd" d="M26.0003 20C24.2204 20 22.7769 21.3104 22.7765 22.9276C22.7709 24.5397 24.2048 25.8514 25.979 25.8569L25.9804 25.8569H26.0003C27.7806 25.8569 29.2234 24.5454 29.2234 22.9282C29.2234 21.3109 27.7805 20 26.0003 20ZM23.5824 22.9282C23.5824 21.7153 24.665 20.7321 26.0003 20.7321C27.3354 20.7321 28.4175 21.7152 28.4175 22.9282C28.4175 24.1413 27.3353 25.1248 26.0003 25.1248H25.9811C24.6522 25.1204 23.5779 24.1375 23.5824 22.9294L23.5824 22.9282Z" stroke="#64C68D" stroke-width="0.4" stroke-linecap="round" stroke-linejoin="round"/>
<path fill-rule="evenodd" clip-rule="evenodd" d="M26.0003 26.6439C24.6227 26.6439 23.2987 26.7324 22.3064 27.0194C21.8089 27.1632 21.3617 27.3661 21.0343 27.6592C20.6956 27.9624 20.5 28.3501 20.5 28.8156C20.5 29.2802 20.6939 29.6682 21.0308 29.9727C21.3567 30.2672 21.8023 30.472 22.2992 30.6177C23.2902 30.9082 24.6146 31 26.0003 31C27.378 31 28.7018 30.9114 29.694 30.6243C30.1914 30.4804 30.6385 30.2776 30.9658 29.9845C31.3044 29.6813 31.5 29.2937 31.5 28.8284C31.5 28.3639 31.3061 27.976 30.9693 27.6715C30.6435 27.377 30.198 27.1722 29.7012 27.0265C28.7104 26.7358 27.3861 26.6439 26.0003 26.6439ZM21.3462 28.8156C21.3462 28.566 21.4429 28.3727 21.6282 28.2067C21.8249 28.0307 22.1336 27.8761 22.5631 27.7519C23.4247 27.5027 24.6394 27.4126 26.0003 27.4126C27.368 27.4126 28.582 27.506 29.4412 27.758C29.8693 27.8836 30.1767 28.0394 30.3725 28.2165C30.5573 28.3835 30.6538 28.578 30.6538 28.8284C30.6538 29.0778 30.5572 29.271 30.3718 29.437C30.1752 29.613 29.8666 29.7676 29.4372 29.8919C28.5757 30.1411 27.3613 30.2313 26.0003 30.2313C24.6326 30.2313 23.4184 30.1381 22.5591 29.8861C22.1309 29.7606 21.8235 29.6047 21.6276 29.4277C21.4427 29.2606 21.3462 29.066 21.3462 28.8156Z" stroke="#64C68D" stroke-width="0.4" stroke-linecap="round" stroke-linejoin="round"/>
</svg>
