<svg width="40" height="40" viewBox="0 0 40 40" fill="none" xmlns="http://www.w3.org/2000/svg">
  <rect width="40" height="40" rx="6" fill="#EFFAF4"/>
  <g clip-path="url(#clip0_364_24223)">
    <path d="M21 28.8008H31V30.2H21V28.8008ZM22 24.8008H23V28.3008H22V24.8008ZM25.5 24.8008H26.5V28.3008H25.5V24.8008ZM29 24.8008H30V28.3008H29V24.8008ZM21 22.3008L26 19.8008L31 22.3008V24.3008H21V22.3008ZM26 22.8008C26.1326 22.8008 26.2598 22.7481 26.3536 22.6543C26.4473 22.5606 26.5 22.4334 26.5 22.3008C26.5 22.1682 26.4473 22.041 26.3536 21.9472C26.2598 21.8535 26.1326 21.8008 26 21.8008C25.8674 21.8008 25.7402 21.8535 25.6464 21.9472C25.5527 22.041 25.5 22.1682 25.5 22.3008C25.5 22.4334 25.5527 22.5606 25.6464 22.6543C25.7402 22.7481 25.8674 22.8008 26 22.8008Z" fill="#64C68D"/>
  </g>
  <path d="M13.25 13C12.388 13 11.5614 13.3424 10.9519 13.9519C10.3424 14.5614 10 15.388 10 16.25V23.75C10 24.612 10.3424 25.4386 10.9519 26.0481C11.5614 26.6576 12.388 27 13.25 27H21.109V25.5H13.25C12.7859 25.5 12.3408 25.3156 12.0126 24.9874C11.6844 24.6592 11.5 24.2141 11.5 23.75V19H30V16.25C30 15.8232 29.9159 15.4006 29.7526 15.0063C29.5893 14.612 29.3499 14.2537 29.0481 13.9519C28.7463 13.6501 28.388 13.4107 27.9937 13.2474C27.5994 13.0841 27.1768 13 26.75 13H13.25ZM28.5 16.25V17.5H11.5V16.25C11.5 15.284 12.284 14.5 13.25 14.5H26.75C27.716 14.5 28.5 15.284 28.5 16.25Z" fill="#64C68D"/>
  <defs>
    <clipPath id="clip0_364_24223">
      <rect width="12" height="12" fill="white" transform="translate(20 18.8008)"/>
    </clipPath>
  </defs>
</svg>
