<svg width="18" height="18" viewBox="0 0 18 18" fill="none" xmlns="http://www.w3.org/2000/svg">
<path fill-rule="evenodd" clip-rule="evenodd" d="M15.9022 0.991622C14.5801 -0.330542 12.4364 -0.33054 11.1142 0.991623L1.46777 10.6381C1.10973 10.9961 0.869717 11.4551 0.779929 11.9534L0.0257371 16.1392C-0.169609 17.2234 0.776642 18.1696 1.86082 17.9743L6.04657 17.2201C6.5449 17.1303 7.00386 16.8903 7.36191 16.5322L17.0084 6.88576C18.3305 5.56359 18.3305 3.41994 17.0084 2.09778L15.9022 0.991622ZM12.0718 1.94922C12.8651 1.15592 14.1513 1.15592 14.9446 1.94922L16.0508 3.05538C16.8441 3.84867 16.8441 5.13486 16.0508 5.92816L15.3974 6.58154C15.3974 6.58151 15.3974 6.58156 15.3974 6.58154L11.4185 2.60259L12.0718 1.94922ZM10.4609 3.56019L2.42537 11.5957C2.26262 11.7584 2.15352 11.9671 2.11271 12.1936L1.35852 16.3793C1.33061 16.5342 1.46579 16.6694 1.62067 16.6415L5.80643 15.8873C6.03295 15.8465 6.24156 15.7374 6.40431 15.5746L14.4398 7.53913C14.4398 7.53911 14.4398 7.53915 14.4398 7.53913L10.4609 3.56019Z" fill="#898E96"/>
</svg>
