<svg width="40" height="40" viewBox="0 0 40 40" fill="none" xmlns="http://www.w3.org/2000/svg">
<rect width="40" height="40" rx="20" fill="#F2F4F8"/>
<path d="M12.8 12.8004C12.8 12.1639 13.0529 11.5534 13.503 11.1033C13.9531 10.6532 14.5635 10.4004 15.2 10.4004H24.8C25.4366 10.4004 26.047 10.6532 26.4971 11.1033C26.9472 11.5534 27.2 12.1639 27.2 12.8004V20.3292L27.1784 20.3208C27.128 20.0003 26.9918 19.6994 26.7844 19.4499C26.577 19.2005 26.306 19.0117 26 18.9036V12.8004C26 12.4821 25.8736 12.1769 25.6486 11.9519C25.4235 11.7268 25.1183 11.6004 24.8 11.6004H15.2C14.8818 11.6004 14.5766 11.7268 14.3515 11.9519C14.1265 12.1769 14 12.4821 14 12.8004V27.2004C14 27.5187 14.1265 27.8239 14.3515 28.0489C14.5766 28.274 14.8818 28.4004 15.2 28.4004H20.9324C21.2375 28.854 21.6097 29.2587 22.0364 29.6004H15.2C14.5635 29.6004 13.9531 29.3475 13.503 28.8974C13.0529 28.4474 12.8 27.8369 12.8 27.2004V12.8004ZM26.0672 26.3988C25.9362 26.4873 25.789 26.5491 25.6341 26.5805C25.4791 26.612 25.3195 26.6125 25.1643 26.582C25.0092 26.5516 24.8615 26.4908 24.73 26.4031C24.5984 26.3154 24.4854 26.2026 24.3976 26.0711C24.3098 25.9396 24.2488 25.7921 24.2182 25.637C24.1875 25.4818 24.1878 25.3222 24.2191 25.1672C24.2504 25.0122 24.312 24.8649 24.4003 24.7338C24.4887 24.6027 24.6021 24.4903 24.734 24.4032C24.9985 24.2406 25.3157 24.1868 25.619 24.2532C25.9222 24.3195 26.188 24.5008 26.3604 24.759C26.5329 25.0171 26.5985 25.3321 26.5436 25.6376C26.4887 25.9432 26.3175 26.2156 26.066 26.3976L26.0672 26.3988ZM29.5388 24.8004H30.2001C30.3592 24.8004 30.5118 24.8636 30.6243 24.9761C30.7368 25.0886 30.8 25.2413 30.8 25.4004C30.8 25.5595 30.7368 25.7121 30.6243 25.8247C30.5118 25.9372 30.3592 26.0004 30.2001 26.0004H29.5388C29.4091 26.8928 28.9945 27.7195 28.3568 28.3571C27.7191 28.9948 26.8925 29.4094 26 29.5392V30.2004C26 30.3595 25.9368 30.5121 25.8243 30.6247C25.7118 30.7372 25.5592 30.8004 25.4 30.8004C25.2409 30.8004 25.0883 30.7372 24.9758 30.6247C24.8633 30.5121 24.8 30.3595 24.8 30.2004V29.5392C23.9076 29.4094 23.081 28.9948 22.4433 28.3571C21.8056 27.7195 21.391 26.8928 21.2612 26.0004H20.6C20.4409 26.0004 20.2883 25.9372 20.1758 25.8247C20.0633 25.7121 20 25.5595 20 25.4004C20 25.2413 20.0633 25.0886 20.1758 24.9761C20.2883 24.8636 20.4409 24.8004 20.6 24.8004H21.2612C21.391 23.908 21.8056 23.0813 22.4433 22.4436C23.081 21.806 23.9076 21.3913 24.8 21.2616V20.6004C24.8 20.4413 24.8633 20.2886 24.9758 20.1761C25.0883 20.0636 25.2409 20.0004 25.4 20.0004C25.5592 20.0004 25.7118 20.0636 25.8243 20.1761C25.9368 20.2886 26 20.4413 26 20.6004V21.2616C26.8925 21.3913 27.7191 21.806 28.3568 22.4436C28.9945 23.0813 29.4091 23.908 29.5388 24.8004ZM25.694 28.386C26.0861 28.3474 26.4668 28.2319 26.8142 28.0462C27.1617 27.8605 27.4691 27.6082 27.7191 27.3036C27.969 26.9991 28.1565 26.6483 28.2709 26.2713C28.3853 25.8943 28.4243 25.4985 28.3857 25.1064C28.347 24.7143 28.2316 24.3337 28.0459 23.9862C27.8602 23.6388 27.6078 23.3313 27.3033 23.0814C26.9988 22.8314 26.648 22.6439 26.271 22.5295C25.894 22.4152 25.4981 22.3762 25.106 22.4148C24.3142 22.4928 23.5858 22.8821 23.081 23.4971C22.5762 24.1122 22.3365 24.9026 22.4144 25.6944C22.4924 26.4862 22.8818 27.2146 23.4968 27.7194C24.1118 28.2242 24.9022 28.464 25.694 28.386Z" fill="#AFB4BD"/>
</svg>
