<svg width="24" height="24" viewBox="0 0 24 24" fill="none" xmlns="http://www.w3.org/2000/svg">
  <path d="M12 16.0008C11.7167 16.0008 11.4793 15.9048 11.288 15.7128C11.096 15.5214 11 15.2841 11 15.0008V7.85078L9.125 9.72578C8.925 9.92578 8.69167 10.0258 8.425 10.0258C8.15833 10.0258 7.91667 9.91745 7.7 9.70078C7.5 9.50078 7.40433 9.26311 7.413 8.98778C7.421 8.71311 7.51667 8.48411 7.7 8.30078L11.3 4.70078C11.4 4.60078 11.5083 4.52978 11.625 4.48778C11.7417 4.44645 11.8667 4.42578 12 4.42578C12.1333 4.42578 12.2583 4.44645 12.375 4.48778C12.4917 4.52978 12.6 4.60078 12.7 4.70078L16.3 8.30078C16.5 8.50078 16.5957 8.73811 16.587 9.01278C16.579 9.28811 16.4833 9.51745 16.3 9.70078C16.1 9.90078 15.8627 10.0048 15.588 10.0128C15.3127 10.0214 15.075 9.92578 14.875 9.72578L13 7.85078V15.0008C13 15.2841 12.9043 15.5214 12.713 15.7128C12.521 15.9048 12.2833 16.0008 12 16.0008ZM6 20.0008C5.45 20.0008 4.97933 19.8051 4.588 19.4138C4.196 19.0218 4 18.5508 4 18.0008V16.0008C4 15.7174 4.09567 15.4798 4.287 15.2878C4.479 15.0964 4.71667 15.0008 5 15.0008C5.28333 15.0008 5.521 15.0964 5.713 15.2878C5.90433 15.4798 6 15.7174 6 16.0008V18.0008H18V16.0008C18 15.7174 18.096 15.4798 18.288 15.2878C18.4793 15.0964 18.7167 15.0008 19 15.0008C19.2833 15.0008 19.5207 15.0964 19.712 15.2878C19.904 15.4798 20 15.7174 20 16.0008V18.0008C20 18.5508 19.8043 19.0218 19.413 19.4138C19.021 19.8051 18.55 20.0008 18 20.0008H6Z" fill="#AFB4BD"/>
</svg>
