<svg width="24" height="24" viewBox="0 0 24 24" fill="none" xmlns="http://www.w3.org/2000/svg">
<rect width="24" height="24" rx="12" fill="#F2F4F8"/>
<path d="M12.0006 10.4372C12.7643 10.4372 13.4967 10.7302 14.0366 11.2519C14.5766 11.7735 14.88 12.4809 14.88 13.2186C14.88 13.9563 14.5766 14.6637 14.0366 15.1853C13.4967 15.707 12.7643 16 12.0006 16C11.237 16 10.5046 15.707 9.96462 15.1853C9.42463 14.6637 9.12128 13.9563 9.12128 13.2186C9.12128 12.4809 9.42463 11.7735 9.96462 11.2519C10.5046 10.7302 11.237 10.4372 12.0006 10.4372ZM12.0006 11.4802C11.5233 11.4802 11.0656 11.6634 10.7281 11.9894C10.3906 12.3154 10.201 12.7576 10.201 13.2186C10.201 13.6796 10.3906 14.1218 10.7281 14.4478C11.0656 14.7738 11.5233 14.957 12.0006 14.957C12.4779 14.957 12.9356 14.7738 13.2731 14.4478C13.6106 14.1218 13.8002 13.6796 13.8002 13.2186C13.8002 12.7576 13.6106 12.3154 13.2731 11.9894C12.9356 11.6634 12.4779 11.4802 12.0006 11.4802ZM12.0006 8C15.3212 8 18.1884 10.1904 18.9838 13.2596C19.0186 13.3938 18.9969 13.5358 18.9233 13.6545C18.8497 13.7732 18.7304 13.8587 18.5915 13.8924C18.4526 13.9261 18.3055 13.905 18.1827 13.834C18.0598 13.7629 17.9713 13.6476 17.9364 13.5134C17.6031 12.2364 16.8381 11.1034 15.7625 10.2941C14.687 9.48471 13.3625 9.04537 11.9991 9.04569C10.6358 9.04601 9.31154 9.48597 8.2364 10.2958C7.16126 11.1057 6.39676 12.239 6.06412 13.5162C6.04697 13.5827 6.01642 13.6452 5.97424 13.7003C5.93205 13.7554 5.87905 13.8019 5.81825 13.8372C5.75746 13.8725 5.69007 13.8959 5.61992 13.906C5.54977 13.9161 5.47825 13.9128 5.40943 13.8962C5.34061 13.8796 5.27585 13.8501 5.21884 13.8094C5.16182 13.7686 5.11368 13.7174 5.07715 13.6587C5.04062 13.6 5.01642 13.5349 5.00593 13.4671C4.99545 13.3994 4.99888 13.3303 5.01604 13.2638C5.40642 11.76 6.30574 10.4252 7.57118 9.47155C8.83662 8.51787 10.3956 7.99994 12.0006 8Z" fill="#AFB4BD"/>
</svg>
